<?xml version="1.0" encoding="utf-8"?>
<!-- Generator: Adobe Illustrator 27.5.0, SVG Export Plug-In . SVG Version: 6.00 Build 0)  -->
<svg version="1.1" xmlns="http://www.w3.org/2000/svg" xmlns:xlink="http://www.w3.org/1999/xlink" x="0px" y="0px"
	 viewBox="0 0 500 500" style="enable-background:new 0 0 500 500;" xml:space="preserve">
<g id="Background_Simple">
	<g>
		<path style="fill:#92E3A9;" d="M266.69,137.061C221.969,19.681,7.079,10.12,36.401,193.161
			c13.11,81.838,69.539,150.052,169.499,167.352c93.957,16.26,264.017-14.656,263.46-102.963
			C468.801,168.97,294.797,210.832,266.69,137.061z"/>
		<path style="opacity:0.7;fill:#FFFFFF;" d="M266.69,137.061C221.969,19.681,7.079,10.12,36.401,193.161
			c13.11,81.838,69.539,150.052,169.499,167.352c93.957,16.26,264.017-14.656,263.46-102.963
			C468.801,168.97,294.797,210.832,266.69,137.061z"/>
	</g>
</g>
<g id="Device">
	<g>
		<g>
			<path style="fill:#263238;" d="M230.829,368.395c0-11.562,9.373-20.935,20.935-20.935s20.935,9.373,20.935,20.935l3.496-1.241
				v-18.459l-12.402-8.076l-18.747-5.48l-14.217,8.653l-6.26,11.656v11.418L230.829,368.395z"/>
			<path style="fill:#999999;stroke:#263238;stroke-linecap:round;stroke-linejoin:round;stroke-miterlimit:10;" d="
				M318.089,433.405H185.44v-6.786c0-4.51,3.656-8.167,8.167-8.167h116.316c4.51,0,8.167,3.656,8.167,8.167V433.405z"/>
			<path style="fill:#757575;stroke:#263238;stroke-linecap:round;stroke-linejoin:round;stroke-miterlimit:10;" d="
				M277.958,318.338h-52.388l-11.215,100.115h74.817L277.958,318.338z M251.764,385.805c-11.562,0-20.935-9.373-20.935-20.935
				c0-11.562,9.373-20.935,20.935-20.935s20.935,9.373,20.935,20.935C272.7,376.432,263.327,385.805,251.764,385.805z"/>
		</g>
		<g>
			
				<path style="fill:#999999;stroke:#263238;stroke-width:0.75;stroke-linecap:round;stroke-linejoin:round;stroke-miterlimit:10;" d="
				M436.701,71.542H66.828c-9.557,0-17.305,7.748-17.305,17.305v223.946c0,9.557,7.748,17.305,17.305,17.305h369.872
				c9.557,0,17.305-7.748,17.305-17.305V88.847C454.006,79.29,446.258,71.542,436.701,71.542z"/>
			
				<path style="fill:#263238;stroke:#263238;stroke-width:0.75;stroke-linecap:round;stroke-linejoin:round;stroke-miterlimit:10;" d="
				M49.57,313.723c0.486,9.122,8.015,16.375,17.258,16.375h369.872c9.243,0,16.772-7.253,17.258-16.375H49.57z"/>
		</g>
	</g>
	<g id="Window">
		<g>
			<g>
				<defs>
					<rect id="XMLID_12_" x="66.828" y="88.847" width="369.872" height="223.946"/>
				</defs>
				<use xlink:href="#XMLID_12_"  style="overflow:visible;fill:#92E3A9;"/>
				<clipPath id="XMLID_00000020395954174010751830000009510206429063396017_">
					<use xlink:href="#XMLID_12_"  style="overflow:visible;"/>
				</clipPath>
				
					<rect x="66.828" y="88.847" style="opacity:0.8;clip-path:url(#XMLID_00000020395954174010751830000009510206429063396017_);fill:#FFFFFF;" width="369.872" height="223.946"/>
				
					<use xlink:href="#XMLID_12_"  style="overflow:visible;fill:none;stroke:#263238;stroke-linecap:round;stroke-linejoin:round;stroke-miterlimit:10;"/>
			</g>
			
				<rect x="66.828" y="88.847" style="fill:#92E3A9;stroke:#263238;stroke-width:0.75;stroke-linecap:round;stroke-linejoin:round;stroke-miterlimit:10;" width="369.872" height="20.56"/>
			<g>
				<path style="fill:#FFFFFF;" d="M86.091,99.127c0,2.771-2.246,5.017-5.017,5.017c-2.771,0-5.017-2.246-5.017-5.017
					s2.246-5.017,5.017-5.017C83.845,94.11,86.091,96.356,86.091,99.127z"/>
				<path style="fill:#FFFFFF;" d="M101.142,99.127c0,2.771-2.246,5.017-5.017,5.017c-2.771,0-5.017-2.246-5.017-5.017
					s2.246-5.017,5.017-5.017C98.896,94.11,101.142,96.356,101.142,99.127z"/>
				<path style="fill:#FFFFFF;" d="M116.192,99.127c0,2.771-2.246,5.017-5.017,5.017c-2.771,0-5.017-2.246-5.017-5.017
					s2.246-5.017,5.017-5.017C113.946,94.11,116.192,96.356,116.192,99.127z"/>
			</g>
			
				<line style="fill:none;stroke:#263238;stroke-width:0.75;stroke-linecap:round;stroke-linejoin:round;stroke-miterlimit:10;" x1="185.058" y1="312.793" x2="185.058" y2="109.407"/>
			<g>
				<defs>
					<path id="XMLID_11_" d="M178.801,297.58L178.801,297.58c-2.181,0-3.95-1.768-3.95-3.95V188.854c0-2.181,1.769-3.95,3.95-3.95
						l0,0c2.182,0,3.95,1.768,3.95,3.95V293.63C182.751,295.811,180.982,297.58,178.801,297.58z"/>
				</defs>
				<use xlink:href="#XMLID_11_"  style="overflow:visible;fill:#92E3A9;"/>
				<clipPath id="XMLID_00000002364443701855775710000003962981445275107472_">
					<use xlink:href="#XMLID_11_"  style="overflow:visible;"/>
				</clipPath>
				<path style="opacity:0.3;clip-path:url(#XMLID_00000002364443701855775710000003962981445275107472_);fill:#FFFFFF;" d="
					M178.801,297.58L178.801,297.58c-2.181,0-3.95-1.768-3.95-3.95V188.854c0-2.181,1.769-3.95,3.95-3.95l0,0
					c2.182,0,3.95,1.768,3.95,3.95V293.63C182.751,295.811,180.982,297.58,178.801,297.58z"/>
			</g>
			<rect x="76.058" y="142.41" style="fill:#92E3A9;" width="88.811" height="11.537"/>
			<rect x="91.108" y="161.157" style="fill:#92E3A9;" width="73.761" height="11.537"/>
			<rect x="91.108" y="179.904" style="fill:#92E3A9;" width="73.761" height="11.537"/>
			<rect x="97.814" y="198.652" style="fill:#92E3A9;" width="67.055" height="11.537"/>
			<g>
				
					<polygon style="fill:#263238;stroke:#263238;stroke-width:0.75;stroke-linecap:round;stroke-linejoin:round;stroke-miterlimit:10;" points="
					84.402,170.305 84.402,163.547 87.781,166.926 				"/>
				
					<polygon style="fill:#263238;stroke:#263238;stroke-width:0.75;stroke-linecap:round;stroke-linejoin:round;stroke-miterlimit:10;" points="
					84.402,189.052 84.402,182.294 87.781,185.673 				"/>
				
					<polygon style="fill:#263238;stroke:#263238;stroke-width:0.75;stroke-linecap:round;stroke-linejoin:round;stroke-miterlimit:10;" points="
					91.108,207.799 91.108,201.041 94.487,204.42 				"/>
			</g>
			<rect x="76.058" y="225.475" style="fill:#92E3A9;" width="88.811" height="11.537"/>
			<rect x="91.108" y="244.222" style="fill:#92E3A9;" width="73.761" height="11.537"/>
			<rect x="97.84" y="262.969" style="fill:#92E3A9;" width="67.029" height="11.537"/>
			<rect x="97.84" y="281.717" style="fill:#92E3A9;" width="67.029" height="11.537"/>
			<g>
				
					<polygon style="fill:#263238;stroke:#263238;stroke-width:0.75;stroke-linecap:round;stroke-linejoin:round;stroke-miterlimit:10;" points="
					84.402,253.37 84.402,246.611 87.781,249.99 				"/>
				
					<polygon style="fill:#263238;stroke:#263238;stroke-width:0.75;stroke-linecap:round;stroke-linejoin:round;stroke-miterlimit:10;" points="
					91.134,272.117 91.134,265.359 94.513,268.738 				"/>
				
					<polygon style="fill:#263238;stroke:#263238;stroke-width:0.75;stroke-linecap:round;stroke-linejoin:round;stroke-miterlimit:10;" points="
					91.134,290.864 91.134,284.106 94.513,287.485 				"/>
			</g>
			
				<rect x="306.387" y="126.066" transform="matrix(-1 -1.224647e-16 1.224647e-16 -1 729.6798 292.9919)" style="fill:#FFFFFF;stroke:#263238;stroke-width:0.75;stroke-linecap:round;stroke-linejoin:round;stroke-miterlimit:10;" width="116.906" height="40.859"/>
			
				<rect x="197.172" y="126.066" transform="matrix(-1 -1.224647e-16 1.224647e-16 -1 493.5603 339.6198)" style="fill:#FFFFFF;stroke:#263238;stroke-width:0.75;stroke-linecap:round;stroke-linejoin:round;stroke-miterlimit:10;" width="99.216" height="87.487"/>
			<g>
				
					<line style="fill:none;stroke:#263238;stroke-width:0.5;stroke-linecap:round;stroke-linejoin:round;stroke-miterlimit:10;" x1="296.388" y1="213.553" x2="197.172" y2="126.066"/>
				
					<line style="fill:none;stroke:#263238;stroke-width:0.5;stroke-linecap:round;stroke-linejoin:round;stroke-miterlimit:10;" x1="197.172" y1="213.553" x2="296.388" y2="126.066"/>
			</g>
			
				<rect x="306.387" y="172.694" style="fill:#92E3A9;stroke:#263238;stroke-width:0.75;stroke-miterlimit:10;" width="54.992" height="40.86"/>
			
				<rect x="368.301" y="172.694" style="fill:#FFFFFF;stroke:#263238;stroke-width:0.75;stroke-linecap:round;stroke-linejoin:round;stroke-miterlimit:10;" width="54.992" height="40.86"/>
			<g>
				
					<line style="fill:none;stroke:#263238;stroke-width:0.5;stroke-linecap:round;stroke-linejoin:round;stroke-miterlimit:10;" x1="423.293" y1="213.553" x2="368.301" y2="172.694"/>
				
					<line style="fill:none;stroke:#263238;stroke-width:0.5;stroke-linecap:round;stroke-linejoin:round;stroke-miterlimit:10;" x1="368.301" y1="213.553" x2="423.293" y2="172.694"/>
			</g>
			
				<rect x="306.387" y="219.322" style="fill:#FFFFFF;stroke:#263238;stroke-width:0.75;stroke-linecap:round;stroke-linejoin:round;stroke-miterlimit:10;" width="116.906" height="76.768"/>
			
				<rect x="246.78" y="219.322" style="fill:#FFFFFF;stroke:#263238;stroke-width:0.75;stroke-linecap:round;stroke-linejoin:round;stroke-miterlimit:10;" width="48.927" height="35.5"/>
			
				<rect x="246.78" y="260.59" style="fill:none;stroke:#263238;stroke-width:0.75;stroke-linecap:round;stroke-linejoin:round;stroke-miterlimit:10;" width="48.927" height="35.5"/>
			<g>
				
					<rect x="371.961" y="165.243" style="fill:#92E3A9;stroke:#263238;stroke-width:0.75;stroke-linecap:round;stroke-linejoin:round;stroke-miterlimit:10;" width="54.992" height="40.859"/>
				
					<rect x="375.522" y="167.889" style="fill:#263238;stroke:#263238;stroke-linecap:round;stroke-linejoin:round;stroke-miterlimit:10;" width="5.76" height="4.28"/>
				
					<polygon style="fill:#999999;stroke:#263238;stroke-width:0.75;stroke-linecap:round;stroke-linejoin:round;stroke-miterlimit:10;" points="
					380.901,197.21 393.936,177.303 406.971,197.21 				"/>
				
					<polygon style="fill:#757575;stroke:#263238;stroke-width:0.75;stroke-linecap:round;stroke-linejoin:round;stroke-miterlimit:10;" points="
					398.123,197.21 408.074,182.012 418.026,197.21 				"/>
				
					<path style="fill:#FFFFFF;stroke:#263238;stroke-width:0.75;stroke-linecap:round;stroke-linejoin:round;stroke-miterlimit:10;" d="
					M406.892,177.303c0,1.836-1.488,3.324-3.324,3.324s-3.324-1.488-3.324-3.324c0-1.836,1.488-3.324,3.324-3.324
					S406.892,175.468,406.892,177.303z"/>
			</g>
			<g>
				
					<rect x="238.08" y="222.206" style="fill:#92E3A9;stroke:#263238;stroke-width:0.75;stroke-linecap:round;stroke-linejoin:round;stroke-miterlimit:10;" width="48.927" height="35.5"/>
				
					<polygon style="fill:#263238;stroke:#263238;stroke-width:0.75;stroke-linecap:round;stroke-linejoin:round;stroke-miterlimit:10;" points="
					255.844,230.47 270.979,239.956 255.844,249.442 258.668,239.956 				"/>
				
					<polygon style="fill:#FFFFFF;stroke:#263238;stroke-width:0.75;stroke-linecap:round;stroke-linejoin:round;stroke-miterlimit:10;" points="
					258.668,239.956 255.844,230.47 270.979,239.956 				"/>
			</g>
			<g>
				
					<polygon style="fill:#92E3A9;stroke:#263238;stroke-width:0.75;stroke-linecap:round;stroke-linejoin:round;stroke-miterlimit:10;" points="
					418.366,115.081 396.56,115.081 396.56,156.326 427.205,156.326 427.205,123.921 				"/>
				
					<polygon style="fill:#92E3A9;stroke:#263238;stroke-width:0.75;stroke-linecap:round;stroke-linejoin:round;stroke-miterlimit:10;" points="
					427.205,123.921 418.366,123.921 418.366,115.081 				"/>
				<g>
					<path style="fill:#263238;" d="M409.904,127.618h3.782l2.894,17.769h-2.793l-0.507-3.529v0.051h-3.174l-0.507,3.478h-2.59
						L409.904,127.618z M412.951,139.498l-1.244-8.783h-0.051l-1.219,8.783H412.951z"/>
				</g>
			</g>
			<g>
				<g>
					
						<polygon style="fill:#92E3A9;stroke:#263238;stroke-width:0.75;stroke-linecap:round;stroke-linejoin:round;stroke-miterlimit:10;" points="
						378.328,118.876 356.522,118.876 356.522,160.12 387.167,160.12 387.167,127.715 					"/>
					
						<polygon style="fill:#92E3A9;stroke:#263238;stroke-width:0.75;stroke-linecap:round;stroke-linejoin:round;stroke-miterlimit:10;" points="
						387.167,127.715 378.328,127.715 378.328,118.876 					"/>
				</g>
				<g>
					<path style="fill:#263238;" d="M369.008,145.422l-0.849,3.76h-1.018l3.711-17.004h1.626l3.784,17.004h-1.116l-0.848-3.76
						H369.008z M369.178,144.451h4.948l-2.499-10.988L369.178,144.451z"/>
				</g>
			</g>
			<g>
				<g>
					
						<polygon style="fill:#92E3A9;stroke:#263238;stroke-width:0.75;stroke-linecap:round;stroke-linejoin:round;stroke-miterlimit:10;" points="
						337.721,112.36 311.554,112.36 311.554,161.853 348.328,161.853 348.328,122.967 					"/>
					
						<polygon style="fill:#92E3A9;stroke:#263238;stroke-width:0.75;stroke-linecap:round;stroke-linejoin:round;stroke-miterlimit:10;" points="
						348.328,122.967 337.721,122.967 337.721,112.36 					"/>
				</g>
				<g>
					<path style="fill:#263238;" d="M326.529,144.799l-1.167,4.697h-0.569l4.811-19.954h0.882l4.925,19.954h-0.626l-1.167-4.697
						H326.529z M326.642,144.23h6.86l-3.472-13.948L326.642,144.23z"/>
				</g>
			</g>
			<g>
				
					<rect x="254.375" y="264.719" style="fill:#FFFFFF;stroke:#263238;stroke-width:0.75;stroke-linecap:round;stroke-linejoin:round;stroke-miterlimit:10;" width="48.927" height="35.5"/>
				<path style="fill:#92E3A9;stroke:#263238;stroke-linecap:round;stroke-linejoin:round;stroke-miterlimit:10;" d="
					M285.821,273.442c-3.856-3.856-10.108-3.856-13.964,0s-3.856,10.108,0,13.964l6.982,6.982l6.982-6.982
					C289.677,283.55,289.677,277.298,285.821,273.442z M282.086,283.672c-1.794,1.794-4.702,1.794-6.495,0
					c-1.794-1.794-1.794-4.702,0-6.495c1.794-1.794,4.702-1.794,6.495,0C283.88,278.97,283.88,281.878,282.086,283.672z"/>
			</g>
			<g>
				
					<rect x="191.027" y="119.803" transform="matrix(-1 -1.224647e-16 1.224647e-16 -1 481.2711 327.0933)" style="fill:#92E3A9;stroke:#263238;stroke-width:0.75;stroke-linecap:round;stroke-linejoin:round;stroke-miterlimit:10;" width="99.216" height="87.487"/>
				
					<rect x="195.588" y="123.825" transform="matrix(-1 -1.224647e-16 1.224647e-16 -1 399.8138 255.2657)" style="fill:#263238;stroke:#263238;stroke-linecap:round;stroke-linejoin:round;stroke-miterlimit:10;" width="8.637" height="7.616"/>
				
					<polygon style="fill:#999999;stroke:#263238;stroke-width:0.75;stroke-linecap:round;stroke-linejoin:round;stroke-miterlimit:10;" points="
					202.814,186.776 229.507,146.012 256.199,186.776 				"/>
				
					<circle style="fill:#FFFFFF;stroke:#263238;stroke-width:0.75;stroke-linecap:round;stroke-linejoin:round;stroke-miterlimit:10;" cx="249.23" cy="146.012" r="6.807"/>
				
					<polygon style="fill:#999999;stroke:#263238;stroke-width:0.75;stroke-linecap:round;stroke-linejoin:round;stroke-miterlimit:10;" points="
					238.08,186.776 258.459,155.653 278.839,186.776 				"/>
			</g>
			<g>
				<g>
					<path style="fill:#92E3A9;stroke:#263238;stroke-linecap:round;stroke-linejoin:round;stroke-miterlimit:10;" d="
						M350.325,255.486c1.226,6.951-3.416,13.579-10.367,14.805c-6.951,1.226-13.579-3.415-14.805-10.367
						c-1.226-6.951,3.416-13.579,10.367-14.805C342.471,243.894,349.099,248.536,350.325,255.486z"/>
					
						<line style="fill:none;stroke:#263238;stroke-width:1.5;stroke-linecap:round;stroke-linejoin:round;stroke-miterlimit:10;" x1="331.623" y1="253.424" x2="343.854" y2="261.988"/>
					
						<line style="fill:none;stroke:#263238;stroke-width:1.5;stroke-linecap:round;stroke-linejoin:round;stroke-miterlimit:10;" x1="342.021" y1="251.59" x2="333.457" y2="263.821"/>
				</g>
				<g>
					<path style="fill:#FFFFFF;stroke:#263238;stroke-linecap:round;stroke-linejoin:round;stroke-miterlimit:10;" d="
						M377.419,270.638c1.226,6.951-3.416,13.579-10.367,14.805c-6.951,1.226-13.579-3.415-14.805-10.367
						c-1.226-6.951,3.416-13.579,10.367-14.805C369.565,259.046,376.193,263.687,377.419,270.638z"/>
					
						<line style="fill:none;stroke:#263238;stroke-width:3;stroke-linecap:round;stroke-linejoin:round;stroke-miterlimit:10;" x1="358.717" y1="268.575" x2="370.949" y2="277.139"/>
					
						<line style="fill:none;stroke:#263238;stroke-width:3;stroke-linecap:round;stroke-linejoin:round;stroke-miterlimit:10;" x1="369.115" y1="266.742" x2="360.551" y2="278.973"/>
				</g>
				<g>
					
						<path style="fill:#999999;stroke:#263238;stroke-width:0.75;stroke-linecap:round;stroke-linejoin:round;stroke-miterlimit:10;" d="
						M402.307,251.204c1.226,6.951-3.415,13.579-10.367,14.805c-6.951,1.226-13.579-3.415-14.805-10.367
						c-1.226-6.951,3.416-13.579,10.367-14.805C394.453,239.612,401.081,244.253,402.307,251.204z"/>
					<g>
						<path style="fill:#FFFFFF;" d="M395.836,259.437c-0.344,0-0.69-0.101-0.992-0.313l-12.231-8.565
							c-0.783-0.548-0.973-1.627-0.425-2.41c0.549-0.784,1.628-0.972,2.41-0.425l12.231,8.565c0.783,0.548,0.974,1.627,0.425,2.41
							C396.917,259.18,396.381,259.437,395.836,259.437z"/>
					</g>
					<g>
						<path style="fill:#FFFFFF;" d="M385.438,261.27c-0.344,0-0.69-0.101-0.991-0.313c-0.783-0.548-0.973-1.627-0.425-2.41
							l8.565-12.231c0.549-0.784,1.629-0.972,2.41-0.425c0.783,0.548,0.973,1.627,0.425,2.41l-8.565,12.231
							C386.52,261.013,385.983,261.27,385.438,261.27z"/>
					</g>
				</g>
			</g>
		</g>
	</g>
</g>
<g id="Plant_1">
	<g>
		
			<polygon style="fill:#263238;stroke:#263238;stroke-width:0.75;stroke-linecap:round;stroke-linejoin:round;stroke-miterlimit:10;" points="
			132.208,433.405 67.818,433.405 60.896,407.532 139.13,407.532 		"/>
		<g>
			<path style="fill:none;stroke:#263238;stroke-width:0.75;stroke-linecap:round;stroke-linejoin:round;stroke-miterlimit:10;" d="
				M91.108,413.301c0,0-5.017-25.958-24.28-40.697c-15.038-11.506-30.807-37.465-30.807-37.465"/>
			<g>
				<path style="fill:#92E3A9;" d="M69.766,379.844c0,0-19.901-4.038-12.979,8.076c6.922,12.114,22.785,6.922,22.785,6.922
					s13.556-8.947,6.634-19.76C79.284,364.269,69.766,379.844,69.766,379.844z"/>
				<path style="opacity:0.1;" d="M86.206,375.082c-6.922-10.813-16.44,4.762-16.44,4.762s-1.442,7.787,9.806,14.998
					C79.573,394.842,93.128,385.895,86.206,375.082z"/>
			</g>
			<g>
				<path style="fill:#92E3A9;" d="M36.78,335.221c0,0-12.622-11.632-12.92,0.158c-0.298,11.789,13.445,14.98,13.445,14.98
					s13.718-0.535,13.446-11.384C50.48,328.127,36.78,335.221,36.78,335.221z"/>
				<path style="opacity:0.1;" d="M50.752,338.975c-0.272-10.848-13.972-3.754-13.972-3.754s-4.452,4.999,0.525,15.137
					C37.305,350.359,51.023,349.823,50.752,338.975z"/>
			</g>
			<g>
				<path style="fill:#92E3A9;" d="M52.742,357.195c0,0-4.964-16.431,5.775-11.558s7.618,18.631,7.618,18.631
					s-6.463,12.112-16.108,7.137C40.383,366.43,52.742,357.195,52.742,357.195z"/>
				<path style="opacity:0.1;" d="M50.027,371.405c-9.644-4.975,2.714-14.21,2.714-14.21s6.44-1.826,13.393,7.073
					C66.135,364.267,59.672,376.38,50.027,371.405z"/>
			</g>
			<path style="fill:none;stroke:#263238;stroke-width:0.75;stroke-linecap:round;stroke-linejoin:round;stroke-miterlimit:10;" d="
				M107.549,413.301c0,0,8.076-23.027,28.265-35.741c20.189-12.714,29.055-28.288,29.055-28.288"/>
			<path style="fill:none;stroke:#263238;stroke-width:0.75;stroke-linecap:round;stroke-linejoin:round;stroke-miterlimit:10;" d="
				M91.134,346.099c0,0,8.091,10.377,9.657,28.983c1.566,18.606,3.008,38.219,3.008,38.219"/>
			<g>
				<path style="fill:#92E3A9;" d="M99.131,361.563c0,0-5.797-12.729,8.332-9.434c14.129,3.295,9.237,14.33,9.237,14.33
					s-9.282,9.907-21.939,6.475C82.103,369.502,99.131,361.563,99.131,361.563z"/>
				<path style="opacity:0.1;" d="M94.761,372.935c-12.657-3.433,4.37-11.371,4.37-11.371s8.719-1.777,17.569,4.897
					C116.7,366.46,107.418,376.367,94.761,372.935z"/>
			</g>
			<g>
				<path style="fill:#92E3A9;" d="M154.311,363.764c0,0-5.797-12.729,8.332-9.434c14.129,3.295,9.237,14.33,9.237,14.33
					s-9.282,9.907-21.939,6.475C137.284,371.703,154.311,363.764,154.311,363.764z"/>
				<path style="opacity:0.1;" d="M149.941,375.135c-12.657-3.432,4.37-11.371,4.37-11.371s8.719-1.777,17.569,4.897
					C171.88,368.661,162.598,378.568,149.941,375.135z"/>
			</g>
			<g>
				<path style="fill:#92E3A9;" d="M122.514,391.08c0,0-2.833-13.697,10.215-7.354c13.048,6.343,5.833,16.021,5.833,16.021
					s-11.246,7.605-22.829,1.454C104.151,395.05,122.514,391.08,122.514,391.08z"/>
				<path style="opacity:0.1;" d="M115.733,401.201c-11.582-6.151,6.781-10.121,6.781-10.121s8.896,0.199,16.048,8.667
					C138.562,399.747,127.316,407.352,115.733,401.201z"/>
			</g>
			<g>
				<path style="fill:#92E3A9;" d="M100.617,383.495c0,0-3.952-8.678,5.68-6.431c9.632,2.246,6.297,9.77,6.297,9.77
					s-6.328,6.754-14.957,4.414C89.008,388.907,100.617,383.495,100.617,383.495z"/>
				<path style="opacity:0.1;" d="M97.637,391.248c-8.629-2.34,2.979-7.752,2.979-7.752s5.944-1.211,11.978,3.338
					C112.594,386.833,106.266,393.588,97.637,391.248z"/>
			</g>
			<g>
				<path style="fill:#92E3A9;" d="M92.037,345.355c0,0,4.952-13.266-6.53-9.564c-11.482,3.702-7.765,14.993-7.765,14.993
					s7.288,10.033,17.584,6.22C105.623,353.191,92.037,345.355,92.037,345.355z"/>
				<path style="opacity:0.1;" d="M95.326,357.004c10.296-3.813-3.289-11.649-3.289-11.649s-7.005-1.65-14.295,5.429
					C77.742,350.784,85.03,360.817,95.326,357.004z"/>
			</g>
			<g>
				<path style="fill:#92E3A9;" d="M164.104,344.272c0,0-5.634-8.283,2.879-7.67c8.512,0.613,7.857,8.996,7.857,8.996
					s-3.32,8.119-11.037,7.231C156.087,351.941,164.104,344.272,164.104,344.272z"/>
				<path style="opacity:0.1;" d="M163.803,352.829c-7.716-0.889,0.301-8.557,0.301-8.557s4.536-2.311,10.735,1.327
					C174.839,345.599,171.519,353.718,163.803,352.829z"/>
			</g>
			<g>
				<path style="fill:#92E3A9;" d="M138.833,373.156c0,0,20.12-2.743,9.594-11.901c-10.526-9.157-23.794,0.971-23.794,0.971
					s-9.852,12.914,0.246,20.842C134.977,390.997,138.833,373.156,138.833,373.156z"/>
				<path style="opacity:0.1;" d="M124.88,383.069c10.098,7.929,13.953-9.912,13.953-9.912s-1.204-7.828-14.2-10.93
					C124.633,362.227,114.782,375.14,124.88,383.069z"/>
			</g>
			<g>
				<path style="fill:#92E3A9;" d="M87.398,396.066c0,0-4.964-16.43,5.775-11.558c10.739,4.872,7.618,18.631,7.618,18.631
					s-6.463,12.112-16.108,7.137C75.039,405.301,87.398,396.066,87.398,396.066z"/>
				<path style="opacity:0.1;" d="M84.684,410.276c-9.644-4.975,2.714-14.21,2.714-14.21s6.44-1.826,13.393,7.073
					C100.791,403.139,94.328,415.251,84.684,410.276z"/>
			</g>
		</g>
	</g>
</g>
<g id="Plant_2">
	<g>
		<g>
			<g>
				<path style="fill:#92E3A9;" d="M365.144,379.808c0,0-35.446-45.004,2.933-5.477c0,0-7.29-43.818,6.919,1.742
					c0,0,9.597-42.362,6.148,6.237c0,0,17.579-40.772,2.403,9.565c0,0-58.653,17.888-14.598-0.232c0,0-60.078-3.28-4.678-5.316
					C364.271,386.328,303.995,358.366,365.144,379.808z"/>
				<path style="opacity:0.1;" d="M365.144,379.808c0,0-35.446-45.004,2.933-5.477c0,0-7.29-43.818,6.919,1.742
					c0,0,9.597-42.362,6.148,6.237c0,0,17.579-40.772,2.403,9.565c0,0-58.653,17.888-14.598-0.232c0,0-60.078-3.28-4.678-5.316
					C364.271,386.328,303.995,358.366,365.144,379.808z"/>
			</g>
			<path style="fill:none;stroke:#263238;stroke-width:0.75;stroke-linecap:round;stroke-linejoin:round;stroke-miterlimit:10;" d="
				M369.935,380.421c0,0,20.189,12.114,25.669,29.419"/>
		</g>
		
			<path style="fill:#263238;stroke:#263238;stroke-width:0.75;stroke-linecap:round;stroke-linejoin:round;stroke-miterlimit:10;" d="
			M435.143,405.568h-65.977c-1.085,0-1.965,0.88-1.965,1.965c0,1.085,0.88,1.965,1.965,1.965h1.424l4.565,17.064
			c1.08,4.037,4.738,6.845,8.917,6.845h36.165c4.179,0,7.837-2.808,8.917-6.845l4.565-17.064h1.424c1.085,0,1.965-0.879,1.965-1.965
			C437.107,406.447,436.228,405.568,435.143,405.568z"/>
		<g>
			<path style="fill:#92E3A9;" d="M386.144,367.047c0,0-21.386-64.326,5.464-4.919c0,0,9.478-51.701,7.002,4.717
				c0,0,27.691-43.3,4.34,9.411c0,0,35.937-38.325-1.166,11.612c0,0-72.47-3.638-16.156-6.119c0,0-65.557-27.772-3.073-7.796
				C382.555,373.953,326.688,318.628,386.144,367.047z"/>
			<path style="fill:none;stroke:#263238;stroke-width:0.75;stroke-linecap:round;stroke-linejoin:round;stroke-miterlimit:10;" d="
				M390.702,368.473c0,0,14.421,20.312,19.612,41.367"/>
		</g>
		<g>
			<g>
				<path style="fill:#92E3A9;" d="M421.842,370.057c0,0,50.432-39.721,6.138,3.287c0,0,49.103-8.169-1.952,7.754
					c0,0,47.471,10.754-6.989,6.89c0,0,45.689,19.699-10.719,2.693c0,0-20.045-65.727,0.26-16.359c0,0,3.675-67.324,5.957-5.243
					C414.537,369.078,445.871,301.534,421.842,370.057z"/>
				<path style="opacity:0.3;fill:#FFFFFF;" d="M421.842,370.057c0,0,50.432-39.721,6.138,3.287c0,0,49.103-8.169-1.952,7.754
					c0,0,47.471,10.754-6.989,6.89c0,0,45.689,19.699-10.719,2.693c0,0-20.045-65.727,0.26-16.359c0,0,3.675-67.324,5.957-5.243
					C414.537,369.078,445.871,301.534,421.842,370.057z"/>
			</g>
			<path style="fill:none;stroke:#263238;stroke-width:0.75;stroke-linecap:round;stroke-linejoin:round;stroke-miterlimit:10;" d="
				M398.04,412.724c9.069-30.284,25.051-37.642,25.051-37.642"/>
		</g>
	</g>
</g>
<g id="Shadow">
	<g>
		<ellipse style="fill:#92E3A9;" cx="230.465" cy="457.272" rx="81.089" ry="15.748"/>
		<ellipse style="opacity:0.7;fill:#FFFFFF;" cx="230.465" cy="457.272" rx="81.089" ry="15.748"/>
	</g>
</g>
<g id="Floor">
	
		<line style="fill:none;stroke:#263238;stroke-linecap:round;stroke-linejoin:round;stroke-miterlimit:10;" x1="26.226" y1="433.405" x2="476.138" y2="433.405"/>
</g>
<g id="Character">
	<g>
		<g>
			<path style="fill:#FFFFFF;stroke:#263238;stroke-linecap:round;stroke-linejoin:round;stroke-miterlimit:10;" d="
				M213.951,187.587l-0.384-8.268c0,0-11.345-7.114-12.114-16.152c0,0-5.954-13.941,12.69-19.612
				c14.854-4.519,14.036-6.73,14.036-6.73s3.177,2.115,0.242,5.961c0,0,5.334,0.577,7.449-1.346c0,0-0.986,4.423-5.684,4.807
				c0,0,3.762,3.653,7.03,2.5c0,0-1.178,2.884-5.877,1.346c0,0,4.362,3.437,5.877,7.98l0.793,3.605l3.87,2.58
				c0.831,0.554,1.017,1.696,0.405,2.485l-1.608,2.073l0.577,3.173l-0.649,0.793l1.514,1.082l0.577,3.028
				c0,0,1.298,3.389,0.144,5.12c-1.154,1.73-7.138,2.019-7.138,2.019l-0.649,7.21L213.951,187.587z"/>
			<path style="fill:#263238;stroke:#263238;stroke-linecap:round;stroke-linejoin:round;stroke-miterlimit:10;" d="M217.82,178.694
				c-0.072-3.677,4.326-6.706,4.326-6.706s-2.163,0.505-4.038-2.379c-1.875-2.884-1.586-7.643,2.38-7.066
				c4.019,0.585,4.326,4.254,4.326,4.254l3.245-1.947c-1.586-1.875-1.226-4.398-0.216-7.283c1.009-2.884-0.937-3.245-0.361-4.975
				c0.44-1.32,3.282-1.73,4.607-1.851c-0.456-0.417-0.749-0.649-0.749-0.649c4.699,1.538,5.877-1.346,5.877-1.346
				c-3.269,1.154-7.03-2.5-7.03-2.5c4.699-0.385,5.684-4.807,5.684-4.807c-2.115,1.923-7.449,1.346-7.449,1.346
				c2.934-3.846-0.242-5.961-0.242-5.961s0.817,2.211-14.036,6.73c-18.644,5.672-12.69,19.613-12.69,19.613
				c0.769,9.037,12.114,16.152,12.114,16.152C215.801,177.997,217.82,178.694,217.82,178.694z"/>
			<path style="fill:none;stroke:#263238;stroke-linecap:round;stroke-linejoin:round;stroke-miterlimit:10;" d="M235.661,158.072
				c0,0-2.019,0-2.692,3.557"/>
			<path style="fill:none;stroke:#263238;stroke-width:0.75;stroke-linecap:round;stroke-linejoin:round;stroke-miterlimit:10;" d="
				M238.449,173.022c0,0-2.5,0-4.134-2.019"/>
			<path style="fill:#263238;stroke:#263238;stroke-linecap:round;stroke-linejoin:round;stroke-miterlimit:10;" d="
				M223.156,173.206c0.474,11.769,12.546,10.824,12.546,10.824s4.244-0.209,6.271-1.31
				C224.251,184.102,223.156,173.206,223.156,173.206z"/>
			<path style="fill:#263238;" d="M236.74,162.507c0.331,0.695,0.289,1.407-0.094,1.589c-0.383,0.183-0.963-0.232-1.294-0.927
				c-0.331-0.695-0.289-1.407,0.094-1.589C235.829,161.397,236.408,161.812,236.74,162.507z"/>
			<path style="fill:#263238;stroke:#263238;stroke-linecap:round;stroke-linejoin:round;stroke-miterlimit:10;" d="
				M245.099,434.197l2.501,15.66c0,0-1.477,4.281-1.69,5.768c-0.093,0.646,0,2.612,0,2.612c0,1.763,1.379,3.212,3.139,3.301
				c3.256,0.165,8.156,0.304,10.239-0.193c2.966-0.708,8.585-3.507,10.882-5.512c0.328-0.286,0.793-0.924,1.228-1.578
				c0.759-1.142,0.836-2.607,0.191-3.817l0,0c-0.677-1.269-2.025-2.034-3.462-1.963l-8.51,0.42l-1.25-16.44L245.099,434.197z"/>
			<path style="fill:#263238;stroke:#263238;stroke-linecap:round;stroke-linejoin:round;stroke-miterlimit:10;" d="
				M194.514,433.727l-2.251,14.094c0,0,1.329,3.853,1.521,5.191c0.083,0.582,0,2.351,0,2.351c0,1.586-1.241,2.891-2.825,2.971
				c-2.93,0.148-7.341,0.274-9.215-0.174c-2.67-0.637-7.726-3.156-9.794-4.961c-0.295-0.258-0.714-0.832-1.105-1.421
				c-0.683-1.028-0.753-2.346-0.172-3.435l0,0c0.609-1.142,1.823-1.831,3.116-1.767l7.659,0.378l1.125-14.796L194.514,433.727z"/>
			<g>
				<defs>
					<path id="XMLID_10_" d="M191.646,287.573c0,0-0.513,9.608-1.154,25.765c-0.48,12.11-4.018,49.628-4.999,62.299
						c-1.298,16.758-5.384,66.913-5.384,66.913s5.384,4.615,13.844,1.923c0,0,10.221-49.348,13.075-65.979
						c2.004-11.677,6.843-46.928,10.383-58.234c1.157-3.696,6.538-14.044,6.538-14.044v-18.644H191.646z"/>
				</defs>
				<use xlink:href="#XMLID_10_"  style="overflow:visible;fill:#92E3A9;"/>
				<clipPath id="XMLID_00000176745348210953879090000006080559588869307785_">
					<use xlink:href="#XMLID_10_"  style="overflow:visible;"/>
				</clipPath>
				<path style="opacity:0.2;clip-path:url(#XMLID_00000176745348210953879090000006080559588869307785_);" d="M187.174,292.052
					c0,0,12.936,7.787,24.185,7.211c0,0,4.326,10.383,1.442,26.246c-2.884,15.863-10.772,54.511-10.772,54.511
					s-6.822,57.292-9.995,56.911c-3.173-0.381-12.835-2.833-12.835-2.833l0.909,8.452l12.214,2.075l7.066-3.101l16.367-51.987
					l3.245-41.388l5.48-34.427l-4.471-23.257l-23.506-6.201h-8.653L187.174,292.052z"/>
				
					<use xlink:href="#XMLID_10_"  style="overflow:visible;fill:none;stroke:#263238;stroke-linecap:round;stroke-linejoin:round;stroke-miterlimit:10;"/>
			</g>
			<g>
				<path style="fill:none;stroke:#263238;stroke-linecap:round;stroke-linejoin:round;stroke-miterlimit:10;" d="M203.347,308.804
					c2.732,1.883,6.704,3.757,12.41,4.919"/>
				<path style="fill:none;stroke:#263238;stroke-linecap:round;stroke-linejoin:round;stroke-miterlimit:10;" d="M200.811,306.759
					c0.365,0.347,0.77,0.703,1.218,1.064"/>
			</g>
			<path style="fill:none;stroke:#263238;stroke-linecap:round;stroke-linejoin:round;stroke-miterlimit:10;" d="M199.325,381.057
				c-1.622,1.767-4.362,2.992-8.833,0.829"/>
			<path style="fill:#FFFFFF;stroke:#263238;stroke-linecap:round;stroke-linejoin:round;stroke-miterlimit:10;" d="
				M271.424,210.546c0,0,6.531-12.973,8.228-17.5c0.51-1.361,1.595-5.59,1.595-5.59s-1.02-5.503-1.099-7.363
				c-0.028-0.649,0.164-2.595,0.164-2.595l-0.356-5.001c-0.029-0.407,0.155-0.799,0.487-1.037l0,0
				c0.63-0.451,1.515-0.178,1.783,0.548l0.632,1.715c0,0,1.053,2.819,1.869,3.302c0.766,0.454,2.7,0.035,3.555-0.212
				c1.366-0.394,3.792-1.962,4.982-2.739c0.867-0.566,3.287-2.52,3.287-2.52s0.331,1.489,0.186,1.96
				c-0.242,0.791-2.106,2.552-2.106,2.552s0.345,1.494,0.186,1.96c-0.222,0.654-1.88,2.021-1.88,2.021s0.106,2.116-0.152,2.756
				c-0.708,1.755-4.946,5.732-4.946,5.732s-1.403,5.446-1.62,7.304c-0.758,6.492-0.23,16.201-7.307,25.1l-6.923-4.356
				L271.424,210.546z"/>
			<path style="fill:#757575;stroke:#263238;stroke-linecap:round;stroke-linejoin:round;stroke-miterlimit:10;" d="M268.75,205.085
				c0,0,14.261-2.827,13.075,9.23c-1.154,11.729-5.961,8.508-5.961,8.508s-6.538,2.836-7.114-0.817
				C268.173,218.352,268.75,205.085,268.75,205.085z"/>
			<path style="fill:#757575;stroke:#263238;stroke-linecap:round;stroke-linejoin:round;stroke-miterlimit:10;" d="M210.249,191.24
				l2.451-5.479c0,0,6.49-0.865,11.969-1.009c5.48-0.144,10.96,1.442,10.96,1.442l2.74,6.201L210.249,191.24z"/>
			<g>
				<defs>
					<path id="XMLID_9_" d="M217.027,287.573h31.918l2.136,21.89c0,0,3.325,42.65,4.402,56.944
						c1.525,20.239,4.999,81.142,4.999,81.142l-14.573,1.154c0,0-10.222-60.609-14.269-80.565
						c-2.674-13.186-11.152-52.108-11.152-52.108S212.797,304.878,217.027,287.573z"/>
				</defs>
				<use xlink:href="#XMLID_9_"  style="overflow:visible;fill:#92E3A9;"/>
				<clipPath id="XMLID_00000024717666250776960200000015324268006379348664_">
					<use xlink:href="#XMLID_9_"  style="overflow:visible;"/>
				</clipPath>
				<path style="opacity:0.2;clip-path:url(#XMLID_00000024717666250776960200000015324268006379348664_);" d="M220.488,316.03
					c0,0,0.581,0.905,6.157,0c5.576-0.905,4.615,18.9,6.537,35.244c1.923,16.344,8.77,25.534,8.77,25.534s-1.613,10.615,0,27.535
					c1.613,16.921,3.151,36.341,6.612,36.149c3.461-0.192,13.075-1.73,13.075-1.73l6.345,3.511l-6.345,12.641l-21.92-4.246
					l-6.922-10.367l-10.191-73.855l-5.384-34.591l1.538-8.268L220.488,316.03z"/>
				
					<use xlink:href="#XMLID_9_"  style="overflow:visible;fill:none;stroke:#263238;stroke-linecap:round;stroke-linejoin:round;stroke-miterlimit:10;"/>
			</g>
			<path style="fill:#263238;stroke:#263238;stroke-linecap:round;stroke-linejoin:round;stroke-miterlimit:10;" d="
				M189.339,289.496c0,0,22.497,13.075,62.683,3.076l-2.307-38.071c0,0,8.261-30.194,7.866-51.848
				c-0.099-5.421-4.491-9.209-9.854-10.008c-5.254-0.782-15.492-2.952-20.798-3.195c-5.943-0.272-17.704,1.18-23.641,1.569
				c-5.621,0.369-10.373,4.172-10.591,9.801c-0.345,8.884-0.166,23.999,2.411,46.897L189.339,289.496z"/>
			<path style="fill:#263238;stroke:#263238;stroke-linecap:round;stroke-linejoin:round;stroke-miterlimit:10;" d="M200.813,191.24
				c0,0-11.186,0.866-12.916,9.518c-1.73,8.653-5.48,39.225-5.48,39.225l-2.307,4.845l12.114,9.576c0,0,4.667-6.225,5.48-8.653
				C200.734,236.696,200.813,191.24,200.813,191.24z"/>
			<path style="fill:#FFFFFF;stroke:#263238;stroke-linecap:round;stroke-linejoin:round;stroke-miterlimit:10;" d="
				M192.223,254.405c0,0-2.884,5.768-8.941,9.951c-6.057,4.182-17.161,6.057-17.161,6.057s-1.311,1.343-1.875,1.586
				c-1.466,0.633-4.796,1.105-6.345,0.721c-0.892-0.221-2.365-1.613-2.74-2.452c-0.206-0.461,0.046-1.516,0-2.019
				c-0.109-1.186-0.995-3.502-0.865-4.687c0.07-0.642,0.881-1.746,1.009-2.379c0.137-0.672-0.485-2.259,0-2.744
				c0.459-0.459,1.953-0.091,2.596,0c0.52,0.073,2.019,0.581,2.019,0.581l2.74-0.581c0,0,0.334-1.329,0.721-1.438
				c0.654-0.184,2.307,1.438,2.307,1.438l0.577,1.446c0,0,8.941-4.903,13.844-12.546L192.223,254.405z"/>
			<path style="fill:#263238;stroke:#263238;stroke-linecap:round;stroke-linejoin:round;stroke-miterlimit:10;" d="
				M249.506,193.035c0,0,6.939,0.706,15.976,8.397l7.499,5.191c0,0,4.615,1.73,4.23,8.845c-0.385,7.114-9.614,9.902-14.613,7.355
				c-4.999-2.547-8.22-3.698-9.999-6.008c-2.588-3.362-5.943-11.72-5.768-15.959C246.915,198.79,249.506,193.035,249.506,193.035z"
				/>
			<path style="fill:none;stroke:#263238;stroke-linecap:round;stroke-linejoin:round;stroke-miterlimit:10;" d="M247.593,372.604
				c-1.073,1.893-3.44,4.064-8.646,4.956"/>
			<g>
				<path style="fill:none;stroke:#7F7F7F;stroke-width:0.75;stroke-linecap:round;stroke-linejoin:round;" d="M236.666,263.708
					c0.545-0.064,1.113-0.306,1.704-0.747"/>
				<path style="fill:none;stroke:#7F7F7F;stroke-width:0.75;stroke-linecap:round;stroke-linejoin:round;" d="M224.31,206.815
					c0,0,2.114,50.276,10.4,56.318"/>
			</g>
			<g>
				<path style="fill:none;stroke:#7F7F7F;stroke-width:0.75;stroke-linecap:round;stroke-linejoin:round;" d="M217.078,271.04
					c6.149,1.362,13.419,1.142,21.292-2.696"/>
				<path style="fill:none;stroke:#7F7F7F;stroke-width:0.75;stroke-linecap:round;stroke-linejoin:round;" d="M197.703,260.098
					c0,0,6.573,7.169,16.868,10.285"/>
			</g>
			<path style="fill:#757575;stroke:#263238;stroke-linecap:round;stroke-linejoin:round;stroke-miterlimit:10;" d="
				M181.571,241.814c0,0,5.188,5.964,13.5,10.964c0,0-0.404,1.442-0.718,1.815c-0.388,0.461-1.698,0.771-2.058,1.254
				c-0.315,0.423-0.172,1.66-0.536,2.041c-0.32,0.334-1.766,0.55-1.766,0.55s-7.562-4.391-12.684-10.695
				c0,0,0.301-1.839,0.671-2.314c0.229-0.294,1.076-0.446,1.289-0.753c0.335-0.482,0.008-1.876,0.4-2.313
				C179.999,241.995,181.571,241.814,181.571,241.814z"/>
			<g>
				<path style="fill:none;stroke:#7F7F7F;stroke-width:0.75;stroke-linecap:round;stroke-linejoin:round;" d="M195.849,240.563
					c0.075,0.762,0.152,1.533,0.232,2.314"/>
				<g>
					<path style="fill:none;stroke:#7F7F7F;stroke-width:0.75;stroke-linecap:round;stroke-linejoin:round;" d="M194.066,209.58
						c0.049,7.2,0.446,16.636,1.557,28.611"/>
					<path style="fill:none;stroke:#7F7F7F;stroke-width:0.75;stroke-linecap:round;stroke-linejoin:round;" d="M194.192,200.82
						c-0.068,1.752-0.116,3.747-0.128,5.996"/>
				</g>
			</g>
			<path style="fill:none;stroke:#7F7F7F;stroke-width:0.75;stroke-linecap:round;stroke-linejoin:round;" d="M246.767,208.392
				c1.45,3.141,4.104,6.785,8.704,10.813"/>
			<g>
				<defs>
					<path id="XMLID_8_" d="M179.25,436.931c0,0,7.389,2.809,17.076,3.295c0,0,0.324,1.462,0.223,1.94
						c-0.125,0.589-1.133,1.481-1.222,2.076c-0.078,0.522,0.632,1.545,0.49,2.053c-0.124,0.445-1.297,1.318-1.297,1.318
						s-8.739-0.303-16.23-3.443c0,0-0.602-1.763-0.5-2.357c0.064-0.368,0.738-0.901,0.781-1.272
						c0.067-0.583-0.878-1.658-0.739-2.228C177.95,437.833,179.25,436.931,179.25,436.931z"/>
				</defs>
				<use xlink:href="#XMLID_8_"  style="overflow:visible;fill:#92E3A9;"/>
				<clipPath id="XMLID_00000175316978137315052470000009667027464494861186_">
					<use xlink:href="#XMLID_8_"  style="overflow:visible;"/>
				</clipPath>
				<path style="opacity:0.5;clip-path:url(#XMLID_00000175316978137315052470000009667027464494861186_);fill:#FFFFFF;" d="
					M179.25,436.931c0,0,7.389,2.809,17.076,3.295c0,0,0.324,1.462,0.223,1.94c-0.125,0.589-1.133,1.481-1.222,2.076
					c-0.078,0.522,0.632,1.545,0.49,2.053c-0.124,0.445-1.297,1.318-1.297,1.318s-8.739-0.303-16.23-3.443
					c0,0-0.602-1.763-0.5-2.357c0.064-0.368,0.738-0.901,0.781-1.272c0.067-0.583-0.878-1.658-0.739-2.228
					C177.95,437.833,179.25,436.931,179.25,436.931z"/>
				
					<use xlink:href="#XMLID_8_"  style="overflow:visible;fill:none;stroke:#263238;stroke-linecap:round;stroke-linejoin:round;stroke-miterlimit:10;"/>
			</g>
			<g>
				<defs>
					<path id="XMLID_7_" d="M244.139,443.255c0,0,7.883,0.577,17.305-1.73c0,0,0.729,1.308,0.769,1.795
						c0.049,0.6-0.662,1.743-0.577,2.34c0.075,0.522,1.048,1.299,1.058,1.827c0.009,0.462-0.865,1.634-0.865,1.634
						s-8.46,2.211-16.536,1.346c0,0-1.082-1.517-1.154-2.115c-0.044-0.37,0.449-1.075,0.384-1.442
						c-0.102-0.578-1.315-1.337-1.346-1.923C243.151,444.492,244.139,443.255,244.139,443.255z"/>
				</defs>
				<use xlink:href="#XMLID_7_"  style="overflow:visible;fill:#92E3A9;"/>
				<clipPath id="XMLID_00000142873194930049383490000001592725431484315576_">
					<use xlink:href="#XMLID_7_"  style="overflow:visible;"/>
				</clipPath>
				<path style="opacity:0.5;clip-path:url(#XMLID_00000142873194930049383490000001592725431484315576_);fill:#FFFFFF;" d="
					M244.139,443.255c0,0,7.883,0.577,17.305-1.73c0,0,0.729,1.308,0.769,1.795c0.049,0.6-0.662,1.743-0.577,2.34
					c0.075,0.522,1.048,1.299,1.058,1.827c0.009,0.462-0.865,1.634-0.865,1.634s-8.46,2.211-16.536,1.346
					c0,0-1.082-1.517-1.154-2.115c-0.044-0.37,0.449-1.075,0.384-1.442c-0.102-0.578-1.315-1.337-1.346-1.923
					C243.151,444.492,244.139,443.255,244.139,443.255z"/>
				
					<use xlink:href="#XMLID_7_"  style="overflow:visible;fill:none;stroke:#263238;stroke-linecap:round;stroke-linejoin:round;stroke-miterlimit:10;"/>
			</g>
			<path style="fill:none;stroke:#263238;stroke-linecap:round;stroke-linejoin:round;stroke-miterlimit:10;" d="M243.27,296.338
				c0,0-0.281,13.019,5.103,13.211"/>
			<path style="fill:#757575;stroke:#263238;stroke-linecap:round;stroke-linejoin:round;stroke-miterlimit:10;" d="
				M201.452,163.168c0.769,9.037,12.114,16.152,12.114,16.152c2.235-1.322,4.254-0.625,4.254-0.625
				c-0.072-3.677,4.326-6.706,4.326-6.706s-2.163,0.505-4.038-2.379c-1.875-2.884-1.586-7.643,2.38-7.066
				c4.019,0.585,4.326,4.254,4.326,4.254l3.245-1.947c-1.586-1.875-1.226-4.398-0.216-7.283c1.009-2.884-0.937-3.245-0.361-4.975
				C227.482,152.592,221.253,158.689,201.452,163.168z"/>
		</g>
	</g>
</g>
</svg>
