<?xml version="1.0" encoding="utf-8"?>
<!-- Generator: Adobe Illustrator 27.5.0, SVG Export Plug-In . SVG Version: 6.00 Build 0)  -->
<svg version="1.1" xmlns="http://www.w3.org/2000/svg" xmlns:xlink="http://www.w3.org/1999/xlink" x="0px" y="0px"
	 viewBox="0 0 500 500" style="enable-background:new 0 0 500 500;" xml:space="preserve">
<g id="BACKGROUND">
	<rect x="0.044" y="0.045" style="fill:#00000000;" width="500" height="500"/>
</g>
<g id="OBJECTS">
	<g>
		<path style="fill:#E1F4FF;" d="M206.856,430.305l-96.491,13.06c-18,4.667-45.659,12.375-56.333,16
			c-17.667,6-14.537,13.008,21,11.667c53-2,296.75-21.5,296.75-21.5L206.856,430.305z"/>
		<g>
			<g>
				<g>
					
						<rect x="431.927" y="123.444" transform="matrix(0.5 0.866 -0.866 0.5 329.6989 -314.1678)" style="fill:none;stroke:#02D2C5;stroke-width:3;stroke-linecap:round;stroke-linejoin:round;stroke-miterlimit:10;" width="10" height="10"/>
					<ellipse style="fill:#02D2C5;" cx="443.198" cy="101.042" rx="4.167" ry="3.833"/>
					<ellipse style="fill:#02D2C5;" cx="433.365" cy="160.542" rx="4.167" ry="3.833"/>
				</g>
				<g>
					
						<rect x="410.725" y="418.986" transform="matrix(-0.2934 0.956 -0.956 -0.2934 943.0182 150.9413)" style="fill:none;stroke:#02D2C5;stroke-width:3;stroke-linecap:round;stroke-linejoin:round;stroke-miterlimit:10;" width="10" height="10"/>
					
						<ellipse transform="matrix(0.7321 -0.6812 0.6812 0.7321 -161.3383 409.6082)" style="fill:#02D2C5;" cx="440.057" cy="409.91" rx="3.833" ry="4.167"/>
				</g>
				<g>
					
						<polyline style="fill:none;stroke:#02D2C5;stroke-width:3;stroke-linecap:round;stroke-linejoin:round;stroke-miterlimit:10;" points="
						35.531,297.625 38.274,305.838 52.365,289.155 					"/>
					
						<rect x="62.115" y="248.708" transform="matrix(0.9673 0.2536 -0.2536 0.9673 66.526 -8.7263)" style="fill:none;stroke:#02D2C5;stroke-width:3;stroke-linecap:round;stroke-linejoin:round;stroke-miterlimit:10;" width="10" height="10"/>
					
						<rect x="45.766" y="354.316" transform="matrix(0.6145 0.7889 -0.7889 0.6145 303.0404 98.4661)" style="fill:none;stroke:#02D2C5;stroke-width:3;stroke-linecap:round;stroke-linejoin:round;stroke-miterlimit:10;" width="10" height="10"/>
					<ellipse style="fill:#02D2C5;" cx="68.031" cy="323.875" rx="4.167" ry="3.833"/>
				</g>
				<g>
					
						<rect x="42.615" y="148.708" transform="matrix(0.9673 0.2536 -0.2536 0.9673 40.5318 -7.05)" style="fill:none;stroke:#02D2C5;stroke-width:3;stroke-linecap:round;stroke-linejoin:round;stroke-miterlimit:10;" width="10" height="10"/>
					<ellipse style="fill:#02D2C5;" cx="53.031" cy="120.708" rx="4.167" ry="3.833"/>
				</g>
				<g>
					
						<rect x="161.796" y="361.437" transform="matrix(0.9673 0.2536 -0.2536 0.9673 98.3683 -30.3181)" style="fill:none;stroke:#02D2C5;stroke-width:3;stroke-linecap:round;stroke-linejoin:round;stroke-miterlimit:10;" width="10" height="10"/>
					<ellipse style="fill:#02D2C5;" cx="174.198" cy="409.875" rx="4.167" ry="3.833"/>
				</g>
				<g>
					
						<polyline style="fill:none;stroke:#02D2C5;stroke-width:3;stroke-linecap:round;stroke-linejoin:round;stroke-miterlimit:10;" points="
						153.031,110.292 155.774,118.504 169.865,101.821 					"/>
					<ellipse style="fill:#02D2C5;" cx="155.031" cy="75.042" rx="4.167" ry="3.833"/>
				</g>
			</g>
			<g>
				<g>
					<g>
						<g>
							<path style="fill:#02D2C5;" d="M361.758,358.987c0,0,30.564-3.204,56.025-20.414c25.461-17.21,15.244-21.738,12.333-31.466
								s24.06-16.7,30.281-47.525c6.221-30.825-17.818-20.162-8.481-37.209s34.689-45.006,16.491-61.857
								s-15.939,10.25-22.736,16.852c-6.797,6.602-20.423,8.394-29.891,20.728c-9.468,12.335-0.564,34.158-17.371,40.283
								s-26.156,5.723-30.705,21.977c-4.549,16.254-0.757,29.96-10.671,31.582S333.451,348.358,361.758,358.987z"/>
							<path style="fill:#08C1AF;" d="M463.902,164.696c0,0-5.841,27.514-18.034,40.207c-12.193,12.693-22.399,25.614-21.117,37.84
								c1.282,12.226-3.267,28.48-19.586,42.042c-16.319,13.562-16.851,18.198-24.429,37.46s-18.294,30.782-18.294,30.782
								s18.161-50.09,26.638-58.176c8.477-8.087,23.772-18.578,29.722-35.343s2.291-30.94,10.528-41.319
								C437.566,207.809,454.863,190.836,463.902,164.696z"/>
						</g>
						<g>
							<path style="fill:#08C1AF;" d="M323.908,430.54c0,0,25.375,7.637,51.359,2.434c25.984-5.203,19.367-12.208,20.294-20.915
								c0.927-8.707,24.7-5.264,39.919-27.706s-7.452-21.973,5.655-32.418s42.586-24.234,33.728-43.699s-16.092,2.841-23.697,5.826
								s-19.04-0.13-30.679,6.524c-11.64,6.655-11.831,26.978-27.239,26.248c-15.408-0.73-22.709-4.165-31.743,7.246
								s-10.586,23.575-19.011,21.561C334.069,373.627,304.938,412.654,323.908,430.54z"/>
							<path style="fill:#08B29D;" d="M469.887,310.059c0,0-13.814,19.935-27.74,25.967c-13.927,6.032-26.349,12.907-29.404,23.057
								s-12.089,21.561-29.587,26.909c-17.498,5.348-19.466,8.858-31.911,21.651c-12.446,12.794-24.807,18.385-24.807,18.385
								s31.135-33.784,40.571-37.391s25.097-6.853,35.415-18.204c10.318-11.35,12.133-23.843,22.142-29.353
								C434.576,335.57,453.988,327.836,469.887,310.059z"/>
						</g>
					</g>
					<g>
						<g>
							<path style="fill:#08C1AF;" d="M247.931,309.199c0,0,15.524-21.477,19.115-47.732s-5.195-22.296-13.118-26.023
								c-7.923-3.727,3.113-25.062-13.11-46.79s-23.201-0.153-28.781-15.957c-5.579-15.804-8.956-48.173-30.248-46.176
								s-2.584,16.135-2.254,24.299c0.331,8.164-6.357,17.948-3.879,31.125c2.477,13.177,21.618,20.012,15.883,34.331
								c-5.735,14.32-11.37,20.094-3.546,32.366c7.824,12.272,18.81,17.721,14.148,25.022
								C197.481,280.964,224.82,321.268,247.931,309.199z"/>
							<path style="fill:#08B29D;" d="M181.883,131.82c0,0,14.314,19.579,15.454,34.713c1.14,15.134,3.569,29.123,12.159,35.332
								c8.591,6.21,16.415,18.482,15.739,36.766c-0.676,18.284,1.996,21.293,10.01,37.241c8.014,15.948,9.25,29.459,9.25,29.459
								s-21.729-40.48-22.047-50.577s1.741-25.958-5.605-39.423c-7.346-13.466-18.557-19.27-20.486-30.532
								C194.427,173.537,193.475,152.663,181.883,131.82z"/>
						</g>
						<g>
							<path style="fill:#02D2C5;" d="M254.487,424.072c0,0-30.313-5.055-54.682-23.78s-13.895-22.623-10.399-32.157
								c3.496-9.534-23.001-18.131-27.338-49.277s19.01-19.043,10.726-36.625c-8.284-17.583-31.891-47.03-12.703-62.744
								s15.287,11.199,21.67,18.202c6.383,7.002,19.876,9.619,28.576,22.506c8.701,12.887-1.512,34.13,14.892,41.263
								s25.76,7.301,29.313,23.801c3.553,16.5-1.064,29.951,8.733,32.172S283.387,415.182,254.487,424.072z"/>
							<path style="fill:#08C1AF;" d="M164.334,223.935c0,0,4.159,27.818,15.558,41.228s20.801,26.927,18.78,39.053
								c-2.022,12.125,1.531,28.626,16.996,43.154c15.465,14.528,15.714,19.188,22.108,38.875s16.391,31.837,16.391,31.837
								s-15.085-51.1-23.055-59.687s-22.6-19.988-27.52-37.083s-0.408-31.023-7.999-41.883
								C188.002,268.568,171.768,250.576,164.334,223.935z"/>
						</g>
					</g>
					<g>
						<path style="fill:#0B6C96;" d="M404.868,59.475l-2.303,0.007l-144.88,0.436c-3.081,0.009-5.986,0.817-8.521,2.223l-0.06,0.025
							L234.437,72.61l-1.233,4.684l7.181-3.22c-0.117,0.571-0.21,1.151-0.27,1.742l-35.12,340.486
							c-1.084,10.512,7.217,19.63,17.785,19.533l132.719-1.212l1.085,8.79l8.022-1.869l4.068-3.205l7.635-6.025
							c6.171-4.638,8.452-7.67,9.099-13.595l37.125-339.603C423.681,68.611,415.435,59.443,404.868,59.475z"/>
						<g>
							<g>
								<path style="fill:#0E5F8C;" d="M227.975,84.662l-35.12,340.486c-1.084,10.512,7.217,19.63,17.785,19.533l144.951-0.312
									c8.977-0.082,16.701-7.879,17.677-16.804l37.125-339.603c1.148-10.505-7.097-19.673-17.665-19.642l-147.183,0.443
									C236.485,68.791,228.905,75.65,227.975,84.662z"/>
								<g>
									<path style="fill:#084E66;" d="M335.651,84.145h-50.864c-2.437,0-4.206-2.318-3.563-4.669l0.362-1.323
										c0.439-1.606,1.898-2.719,3.563-2.719h50.87c2.444,0,4.214,2.33,3.559,4.684l-0.368,1.323
										C338.766,83.04,337.31,84.145,335.651,84.145z"/>
									<ellipse style="fill:#084E66;" cx="349.716" cy="79.749" rx="4.807" ry="4.931"/>
								</g>
							</g>
							<g>
								<path style="fill:#ABDBFF;" d="M236.018,107.244l-31.01,300.647c-0.957,9.282,6.373,17.333,15.704,17.248l128.191-1.171
									c7.927-0.072,14.547-6.063,15.408-13.943l32.781-299.867c1.014-9.276-6.266-17.371-15.598-17.343l-129.962,0.391
									C243.532,93.23,236.839,99.286,236.018,107.244z"/>
								<g>
									<g>
										<path style="fill:#FFFFFF;" d="M354.581,279.881h-19.035h-0.594h-18.441h-0.594h-18.441h-0.594h-18.441h-0.594h-18.441
											h-0.594l-16.65-0.195c-0.777,0-2.25,1.652-2.336,2.725l-2.076,19.398c-0.1,1.255,0.972,2.465,1.881,2.465l17.565,0.032
											h0.594h18.441h0.594h18.441h0.594h18.441h0.594h18.441h0.594l16.771,0.032c0.777,0,2.574-1.133,2.66-2.206l2.734-19.9
											C356.197,280.979,355.49,279.881,354.581,279.881z"/>
										<g>
											<g>
												<path style="fill:#ABDBFF;" d="M248.521,287.631h1.332l0.822,5.097l0.315,1.944h0.058l1.01-1.944l2.803-5.097h1.332
													l-1.887,9.434h-1.066l1.079-5.321c0.184-0.851,0.459-1.947,0.685-2.769h-0.053l-1.137,2.094l-2.783,5.01h-0.626
													l-0.877-5.01l-0.323-2.094h-0.053c-0.117,0.84-0.245,1.929-0.404,2.769l-1.068,5.321h-1.045L248.521,287.631z"/>
												<path style="fill:#ABDBFF;" d="M256.821,294.429c0-2.643,1.862-4.523,3.773-4.523c1.507,0,2.493,1.062,2.493,2.808
													c0,2.644-1.862,4.524-3.773,4.524C257.808,297.237,256.821,296.175,256.821,294.429z M261.977,292.778
													c0-1.264-0.531-1.96-1.496-1.96c-1.287,0-2.548,1.594-2.548,3.546c0,1.264,0.531,1.959,1.495,1.959
													C260.716,296.323,261.977,294.73,261.977,292.778z"/>
												<path style="fill:#ABDBFF;" d="M265.499,290.077h0.906l-0.109,1.048h0.058c0.788-0.685,1.575-1.22,2.44-1.22
													c1.179,0,1.66,0.668,1.66,1.741c0,0.334-0.034,0.581-0.115,0.962l-0.891,4.456h-1.102l0.87-4.313
													c0.076-0.368,0.115-0.569,0.115-0.814c0-0.711-0.32-1.076-1.04-1.076c-0.548,0-1.22,0.386-2.101,1.26l-0.981,4.944
													h-1.101L265.499,290.077z"/>
												<path style="fill:#ABDBFF;" d="M277.48,289.559l0.548-2.734h1.101l-2.066,10.24h-0.906l0.109-1.036h-0.047
													c-0.687,0.715-1.557,1.209-2.429,1.209c-1.229,0-2.012-0.895-2.012-2.536c0-2.677,1.84-4.796,3.769-4.796
													c0.749,0,1.321,0.406,1.652,1.022h0.047L277.48,289.559z M276.381,294.982l0.642-3.117
													c-0.409-0.736-0.899-1.036-1.431-1.036c-1.396,0-2.682,1.774-2.682,3.712c0,1.201,0.495,1.772,1.279,1.772
													C274.927,296.313,275.688,295.887,276.381,294.982z"/>
												<path style="fill:#ABDBFF;" d="M279.467,294.701c0-2.677,1.84-4.796,3.769-4.796c0.749,0,1.363,0.417,1.694,1.055h0.047
													l0.28-0.883h0.896l-1.401,6.987h-0.906l0.109-1.036h-0.047c-0.687,0.715-1.557,1.209-2.429,1.209
													C280.25,297.237,279.467,296.343,279.467,294.701z M284.069,294.982l0.642-3.117c-0.409-0.736-0.899-1.036-1.431-1.036
													c-1.396,0-2.682,1.774-2.682,3.712c0,1.201,0.495,1.772,1.279,1.772C282.615,296.313,283.387,295.887,284.069,294.982z"
													/>
												<path style="fill:#ABDBFF;" d="M285.728,299.868l0.362-0.821c0.162,0.087,0.327,0.126,0.51,0.126
													c0.704,0,1.351-0.625,1.828-1.592l0.252-0.505l-1.191-6.999h1.095l0.55,3.919c0.094,0.646,0.177,1.435,0.231,2.089
													h0.058c0.324-0.661,0.687-1.415,1.029-2.089l2.02-3.919h1.088l-4.106,7.582c-0.741,1.354-1.581,2.416-2.923,2.416
													C286.332,300.075,285.996,300.005,285.728,299.868z"/>
												<path style="fill:#ABDBFF;" d="M292.609,298.755c0.906-0.335,1.474-0.949,1.602-1.657l0.088-1.08l0.377,0.904
													c-0.129,0.134-0.341,0.205-0.498,0.205c-0.438,0-0.748-0.269-0.748-0.696c0-0.467,0.356-0.921,0.913-0.921
													c0.508,0,0.788,0.375,0.788,0.953c0,1.402-0.956,2.563-2.364,2.965L292.609,298.755z"/>
												<path style="fill:#ABDBFF;" d="M302.804,297.064l0.508-2.534h-3.904l0.135-0.738l4.91-5.896h1.208l-1.149,5.752h1.2
													l-0.182,0.882h-1.191l-0.508,2.534H302.804z M303.483,293.648l0.545-2.727c0.107-0.535,0.29-1.19,0.434-1.825h-0.058
													c-0.381,0.538-0.752,1.057-1.107,1.507l-2.541,3.045H303.483z"/>
												<path style="fill:#ABDBFF;" d="M306.518,296.521c0-0.486,0.414-1.011,0.963-1.011c0.418,0,0.659,0.317,0.659,0.735
													c0,0.496-0.396,0.992-0.945,0.992C306.777,297.237,306.518,296.93,306.518,296.521z M307.438,291.212
													c0-0.485,0.415-1.011,0.964-1.011c0.417,0,0.659,0.318,0.659,0.735c0,0.496-0.396,0.992-0.945,0.992
													C307.699,291.929,307.438,291.622,307.438,291.212z"/>
												<path style="fill:#ABDBFF;" d="M310.276,294.12c0-3.43,1.749-6.396,3.784-6.396c1.44,0,2.255,1.361,2.255,3.146
													c0,3.43-1.738,6.367-3.772,6.367C311.084,297.237,310.276,295.911,310.276,294.12z M315.289,290.829
													c0-1.281-0.415-2.223-1.3-2.223c-1.48,0-2.676,2.969-2.676,5.555c0,1.264,0.396,2.194,1.282,2.194
													C314.075,296.355,315.289,293.433,315.289,290.829z"/>
												<path style="fill:#ABDBFF;" d="M317.175,294.12c0-3.43,1.749-6.396,3.784-6.396c1.44,0,2.255,1.361,2.255,3.146
													c0,3.43-1.738,6.367-3.772,6.367C317.982,297.237,317.175,295.911,317.175,294.12z M322.188,290.829
													c0-1.281-0.415-2.223-1.3-2.223c-1.48,0-2.676,2.969-2.676,5.555c0,1.264,0.396,2.194,1.282,2.194
													C320.974,296.355,322.188,293.433,322.188,290.829z"/>
												<path style="fill:#ABDBFF;" d="M327.612,297.721l-0.437,2.291h-1.101l1.991-9.935h0.906l-0.088,0.922h0.047
													c0.705-0.593,1.535-1.094,2.407-1.094c1.229,0,2.013,0.903,2.013,2.535c0,2.677-1.84,4.797-3.77,4.797
													c-0.728,0-1.317-0.415-1.678-1.013h-0.029L327.612,297.721z M328.788,291.979l-0.671,3.334
													c0.398,0.719,0.878,1.001,1.42,1.001c1.396,0,2.682-1.775,2.682-3.713c0-1.192-0.495-1.771-1.279-1.771
													C330.294,290.829,329.441,291.256,328.788,291.979z"/>
												<path style="fill:#ABDBFF;" d="M335.744,290.077h0.906l-0.109,1.048h0.058c0.734-0.685,1.575-1.22,2.3-1.22
													c1.107,0,1.51,0.604,1.613,1.37c0.893-0.853,1.752-1.37,2.477-1.37c1.16,0,1.642,0.668,1.642,1.741
													c0,0.334-0.034,0.581-0.115,0.962l-0.891,4.456h-1.101l0.869-4.313c0.076-0.368,0.115-0.569,0.115-0.814
													c0-0.711-0.32-1.076-1.021-1.076c-0.396,0-1.134,0.386-1.96,1.26l-0.992,4.944h-1.101l0.87-4.313
													c0.075-0.368,0.114-0.569,0.114-0.814c0-0.711-0.32-1.076-1.011-1.076c-0.407,0-1.145,0.386-1.971,1.26l-0.981,4.944
													h-1.101L335.744,290.077z"/>
											</g>
										</g>
									</g>
									<g>
										<g>
											<path style="fill:#FFFFFF;" d="M239.985,131.224l-1.896,17.064c-0.118,1.061,0.713,1.989,1.78,1.989h23.05
												c0.913,0,1.679-0.686,1.78-1.593l1.896-17.064c0.118-1.061-0.713-1.989-1.78-1.989h-23.05
												C240.853,129.631,240.086,130.317,239.985,131.224z"/>
											<path style="fill:#FFFFFF;" d="M270.452,131.301l-1.896,17.064c-0.118,1.061,0.713,1.989,1.78,1.989h23.05
												c0.913,0,1.679-0.686,1.78-1.593l1.896-17.064c0.118-1.061-0.713-1.989-1.78-1.989h-23.05
												C271.319,129.708,270.552,130.394,270.452,131.301z"/>
											<path style="fill:#FFFFFF;" d="M300.918,131.379l-1.896,17.064c-0.118,1.061,0.713,1.989,1.78,1.989h23.05
												c0.913,0,1.679-0.686,1.78-1.593l1.896-17.064c0.118-1.061-0.713-1.989-1.78-1.989h-23.05
												C301.785,129.785,301.019,130.472,300.918,131.379z"/>
											<path style="fill:#0E5F8C;" d="M331.384,131.456l-1.896,17.064c-0.118,1.061,0.713,1.989,1.78,1.989h23.05
												c0.913,0,1.679-0.686,1.78-1.593l1.896-17.064c0.118-1.061-0.713-1.989-1.78-1.989h-23.05
												C332.251,129.863,331.485,130.549,331.384,131.456z"/>
											<path style="fill:#FFFFFF;" d="M361.85,131.533l-1.896,17.064c-0.118,1.061,0.713,1.989,1.78,1.989h23.05
												c0.913,0,1.679-0.686,1.78-1.593l1.896-17.064c0.118-1.061-0.713-1.989-1.78-1.989h-23.05
												C362.718,129.94,361.951,130.626,361.85,131.533z"/>
										</g>
										<g>
											<path style="fill:#FFFFFF;" d="M236.863,159.986l-1.896,17.064c-0.118,1.061,0.713,1.989,1.78,1.989h23.05
												c0.913,0,1.679-0.686,1.78-1.593l1.896-17.064c0.118-1.061-0.713-1.989-1.78-1.989h-23.05
												C237.73,158.393,236.963,159.079,236.863,159.986z"/>
											<path style="fill:#02D2C5;" d="M267.329,160.063l-1.896,17.064c-0.118,1.061,0.713,1.989,1.78,1.989h23.05
												c0.913,0,1.679-0.686,1.78-1.593l1.896-17.064c0.118-1.061-0.713-1.989-1.78-1.989h-23.05
												C268.196,158.47,267.43,159.156,267.329,160.063z"/>
											<path style="fill:#FFFFFF;" d="M297.795,160.141l-1.896,17.064c-0.118,1.061,0.713,1.989,1.78,1.989h23.05
												c0.913,0,1.679-0.686,1.78-1.593l1.896-17.064c0.118-1.061-0.713-1.989-1.78-1.989h-23.05
												C298.663,158.548,297.896,159.234,297.795,160.141z"/>
											<path style="fill:#FFFFFF;" d="M328.261,160.218l-1.896,17.064c-0.118,1.061,0.713,1.989,1.78,1.989h23.05
												c0.913,0,1.679-0.686,1.78-1.593l1.896-17.064c0.118-1.061-0.713-1.989-1.78-1.989h-23.05
												C329.129,158.625,328.362,159.311,328.261,160.218z"/>
											<path style="fill:#FFFFFF;" d="M358.728,160.295l-1.896,17.064c-0.118,1.061,0.713,1.989,1.78,1.989h23.05
												c0.913,0,1.679-0.686,1.78-1.593l1.896-17.064c0.118-1.061-0.713-1.989-1.78-1.989h-23.05
												C359.595,158.702,358.828,159.388,358.728,160.295z"/>
										</g>
										<g>
											<path style="fill:#FFFFFF;" d="M233.74,188.748l-1.896,17.064c-0.118,1.061,0.713,1.989,1.78,1.989h23.05
												c0.913,0,1.679-0.686,1.78-1.593l1.896-17.064c0.118-1.061-0.713-1.989-1.78-1.989h-23.05
												C234.607,187.155,233.841,187.841,233.74,188.748z"/>
											<path style="fill:#0E5F8C;" d="M264.206,188.825l-1.896,17.064c-0.118,1.061,0.713,1.989,1.78,1.989h23.05
												c0.913,0,1.679-0.686,1.78-1.593l1.896-17.064c0.118-1.061-0.713-1.989-1.78-1.989h-23.05
												C265.074,187.232,264.307,187.918,264.206,188.825z"/>
											<path style="fill:#FFFFFF;" d="M294.672,188.903l-1.896,17.064c-0.118,1.061,0.713,1.989,1.78,1.989h23.05
												c0.913,0,1.679-0.686,1.78-1.593l1.896-17.064c0.118-1.061-0.713-1.989-1.78-1.989h-23.05
												C295.54,187.31,294.773,187.996,294.672,188.903z"/>
											<path style="fill:#FFFFFF;" d="M325.139,188.98l-1.896,17.064c-0.118,1.061,0.713,1.989,1.78,1.989h23.05
												c0.913,0,1.679-0.686,1.78-1.593l1.896-17.064c0.118-1.061-0.713-1.989-1.78-1.989h-23.05
												C326.006,187.387,325.239,188.073,325.139,188.98z"/>
											<path style="fill:#FFFFFF;" d="M355.605,189.057l-1.896,17.064c-0.118,1.061,0.713,1.989,1.78,1.989h23.05
												c0.913,0,1.679-0.686,1.78-1.593l1.896-17.064c0.118-1.061-0.713-1.989-1.78-1.989h-23.05
												C356.472,187.464,355.706,188.15,355.605,189.057z"/>
										</g>
										<g>
											<path style="fill:#FFFFFF;" d="M230.617,217.51l-1.896,17.064c-0.118,1.061,0.713,1.989,1.78,1.989h23.05
												c0.913,0,1.679-0.686,1.78-1.593l1.896-17.064c0.118-1.061-0.713-1.989-1.78-1.989h-23.05
												C231.485,215.917,230.718,216.603,230.617,217.51z"/>
											<path style="fill:#FFFFFF;" d="M261.083,217.588l-1.896,17.064c-0.118,1.061,0.713,1.989,1.78,1.989h23.05
												c0.913,0,1.679-0.686,1.78-1.593l1.896-17.064c0.118-1.061-0.713-1.989-1.78-1.989h-23.05
												C261.951,215.994,261.184,216.68,261.083,217.588z"/>
											<path style="fill:#FFFFFF;" d="M291.55,217.665l-1.896,17.064c-0.118,1.061,0.713,1.989,1.78,1.989h23.05
												c0.913,0,1.679-0.686,1.78-1.593l1.896-17.064c0.118-1.061-0.713-1.989-1.78-1.989h-23.05
												C292.417,216.072,291.65,216.758,291.55,217.665z"/>
											<path style="fill:#02D2C5;" d="M322.016,217.742l-1.896,17.064c-0.118,1.061,0.713,1.989,1.78,1.989h23.05
												c0.913,0,1.679-0.686,1.78-1.593l1.896-17.064c0.118-1.061-0.713-1.989-1.78-1.989h-23.05
												C322.883,216.149,322.117,216.835,322.016,217.742z"/>
											<path style="fill:#FFFFFF;" d="M352.482,217.819l-1.896,17.064c-0.118,1.061,0.713,1.989,1.78,1.989h23.05
												c0.913,0,1.679-0.686,1.78-1.593l1.896-17.064c0.118-1.061-0.713-1.989-1.78-1.989h-23.05
												C353.349,216.226,352.583,216.912,352.482,217.819z"/>
										</g>
										<g>
											<path style="fill:#FFFFFF;" d="M227.494,246.272l-1.896,17.064c-0.118,1.061,0.713,1.989,1.78,1.989h23.05
												c0.913,0,1.679-0.686,1.78-1.593l1.896-17.064c0.118-1.061-0.713-1.989-1.78-1.989h-23.05
												C228.362,244.679,227.595,245.365,227.494,246.272z"/>
											<path style="fill:#FFFFFF;" d="M257.961,246.35l-1.896,17.064c-0.118,1.061,0.713,1.989,1.78,1.989h23.05
												c0.913,0,1.679-0.686,1.78-1.593l1.896-17.064c0.118-1.061-0.713-1.989-1.78-1.989h-23.05
												C258.828,244.756,258.061,245.442,257.961,246.35z"/>
											<path style="fill:#FFFFFF;" d="M288.427,246.427l-1.896,17.064c-0.118,1.061,0.713,1.989,1.78,1.989h23.05
												c0.913,0,1.679-0.686,1.78-1.593l1.896-17.064c0.118-1.061-0.713-1.989-1.78-1.989h-23.05
												C289.294,244.834,288.528,245.52,288.427,246.427z"/>
											<path style="fill:#FFFFFF;" d="M318.893,246.504l-1.896,17.064c-0.118,1.061,0.713,1.989,1.78,1.989h23.05
												c0.913,0,1.679-0.686,1.78-1.593l1.896-17.064c0.118-1.061-0.713-1.989-1.78-1.989h-23.05
												C319.761,244.911,318.994,245.597,318.893,246.504z"/>
											<path style="fill:#FFFFFF;" d="M349.359,246.582l-1.896,17.064c-0.118,1.061,0.713,1.989,1.78,1.989h23.05
												c0.913,0,1.679-0.686,1.78-1.593l1.896-17.064c0.118-1.061-0.713-1.989-1.78-1.989h-23.05
												C350.227,244.988,349.46,245.674,349.359,246.582z"/>
										</g>
									</g>
									<g>
										<path style="fill:#FFFFFF;" d="M223.37,323.398l-10.049,76.374c-0.625,4.749,3.777,8.902,9.435,8.902h122.169
											c4.837,0,8.901-3.071,9.435-7.131l10.049-76.374c0.625-4.749-3.777-8.902-9.435-8.902H232.805
											C227.968,316.267,223.904,319.338,223.37,323.398z"/>
										<g>
											<g>
												<g>
													<g>
														<path style="fill:#02D2C5;" d="M251.492,339.736c-8.754-1.114-16.718,4.79-17.787,13.188
															c0,0-1.926,10.046,7.25,26.906c1.957,3.595,6.602,4.168,9.366,1.144c5.81-6.357,14.369-16.825,15.086-24.015
															C266.476,348.562,260.246,340.851,251.492,339.736z M259.492,357.279c-0.679,5.336-5.739,9.088-11.302,8.38
															c-5.562-0.708-9.521-5.608-8.842-10.944c0.679-5.336,5.739-9.088,11.302-8.38
															C256.213,347.043,260.172,351.943,259.492,357.279z"/>
														
															<ellipse transform="matrix(0.1263 -0.992 0.992 0.1263 -135.2333 558.4457)" style="fill:#FFFFFF;" cx="249.421" cy="355.997" rx="9.74" ry="10.153"/>
													</g>
												</g>
											</g>
											<g>
												
													<ellipse style="fill:none;stroke:#02D2C5;stroke-width:3;stroke-miterlimit:10;" cx="342.277" cy="337.833" rx="9.887" ry="9.638"/>
												<polyline style="fill:none;stroke:#02D2C5;stroke-width:3;stroke-miterlimit:10;" points="341.225,335.748 
													342.69,341.384 356.781,324.701 												"/>
											</g>
											<g>
												<polygon style="fill:#ABDBFF;" points="288.409,319.952 278.329,404.675 280.162,404.675 290.658,319.869 												
													"/>
												<g>
													<polygon style="fill:#ABDBFF;" points="295.74,328.324 294.241,340.695 321.732,340.695 322.939,328.324 													
														"/>
													<g>
														<polygon style="fill:#ABDBFF;" points="291.411,356.19 290.219,364.313 348.223,364.271 349.972,356.44 
																													"/>
														<polygon style="fill:#ABDBFF;" points="289.861,369.936 288.668,378.058 346.673,378.017 348.422,370.186 
																													"/>
														<polygon style="fill:#ABDBFF;" points="288.311,383.682 287.118,391.804 345.122,391.762 346.871,383.931 
																													"/>
													</g>
												</g>
											</g>
										</g>
									</g>
									<g>
										<g>
											<g>
												<g>
													<path style="fill:#FFFFFF;" d="M277.922,117.363l1.132-0.876c0.54,0.781,1.341,1.268,2.275,1.268
														c0.98,0,1.694-0.554,1.694-1.437c0-0.601-0.449-0.946-1.144-1.364l-0.998-0.606c-0.836-0.517-1.439-1.193-1.439-2.305
														c0-1.529,1.361-2.792,3.149-2.792c1.126,0,2.121,0.563,2.78,1.39l-0.999,0.923c-0.484-0.542-1.085-0.96-1.869-0.96
														c-0.923,0-1.459,0.624-1.459,1.277c0,0.607,0.487,0.92,1.207,1.358l1.021,0.612c0.908,0.54,1.37,1.164,1.37,2.244
														c0,1.709-1.388,2.995-3.442,2.995C279.933,119.09,278.77,118.562,277.922,117.363z"/>
													<path style="fill:#FFFFFF;" d="M287.675,109.426h5.434l-0.262,1.317h-3.883l-0.505,2.56h3.291l-0.262,1.317h-3.279
														l-0.615,2.978h4.011l-0.261,1.317h-5.566L287.675,109.426z"/>
													<path style="fill:#FFFFFF;" d="M295.15,109.426h2.839c1.819,0,3.116,0.685,3.116,2.42c0,2.49-1.86,3.518-4.266,3.518
														h-1.317l-0.703,3.552h-1.566L295.15,109.426z M296.971,114.116c1.677,0,2.585-0.702,2.585-2.049
														c0-0.975-0.664-1.393-1.862-1.393h-1.236l-0.674,3.442H296.971z"/>
													<path style="fill:#FFFFFF;" d="M304.924,110.755h-2.623l0.261-1.329h6.814l-0.261,1.329h-2.624l-1.619,8.161h-1.567
														L304.924,110.755z"/>
													<path style="fill:#FFFFFF;" d="M310.942,109.426h5.434l-0.262,1.317h-3.883l-0.505,2.56h3.291l-0.262,1.317h-3.279
														l-0.615,2.978h4.011l-0.261,1.317h-5.566L310.942,109.426z"/>
													<path style="fill:#FFFFFF;" d="M318.417,109.426h1.735l0.749,4.748l0.281,1.828h0.059l0.949-1.828l2.6-4.748h1.736
														l-1.898,9.49h-1.48l0.935-4.551c0.191-0.905,0.517-2.107,0.778-2.983h-0.05l-1.158,2.147l-2.513,4.458h-0.72
														l-0.784-4.458l-0.313-2.147h-0.049c-0.102,0.888-0.221,2.095-0.392,2.983l-0.917,4.551h-1.445L318.417,109.426z"/>
													<path style="fill:#FFFFFF;" d="M328.911,109.426h2.717c1.857,0,3.07,0.696,3.07,2.13c0,1.19-0.946,2.072-2.09,2.374
														l-0.017,0.058c1.016,0.238,1.688,0.841,1.688,1.852c0,2.171-1.782,3.076-4.022,3.076h-3.244L328.911,109.426z
														 M330.258,117.703c1.567,0,2.508-0.575,2.508-1.794c0-0.865-0.639-1.41-1.846-1.41h-1.457l-0.65,3.204H330.258z
														 M330.833,113.408c1.561,0,2.264-0.65,2.264-1.596c0-0.743-0.558-1.173-1.788-1.173h-1.074l-0.557,2.769H330.833z"/>
													<path style="fill:#FFFFFF;" d="M337.533,109.426h5.434l-0.262,1.317h-3.883l-0.505,2.56h3.291l-0.262,1.317h-3.279
														l-0.615,2.978h4.011l-0.261,1.317h-5.566L337.533,109.426z"/>
													<path style="fill:#FFFFFF;" d="M345.009,109.426h2.792c1.816,0,3.105,0.644,3.105,2.322
														c0,2.31-1.887,3.419-4.052,3.419h-1.434l-0.743,3.75h-1.566L345.009,109.426z M346.896,113.918
														c1.607,0,2.461-0.76,2.461-1.95c0-0.917-0.645-1.294-1.852-1.294h-1.189l-0.633,3.245H346.896z M346.704,114.824
														l1.155-0.975l2.014,5.067h-1.66L346.704,114.824z"/>
												</g>
											</g>
										</g>
										<polyline style="fill:none;stroke:#FFFFFF;stroke-linecap:round;stroke-linejoin:round;stroke-miterlimit:10;" points="
											266.735,110.85 261.171,113.972 265.942,117.628 										"/>
										<polyline style="fill:none;stroke:#FFFFFF;stroke-linecap:round;stroke-linejoin:round;stroke-miterlimit:10;" points="
											362.125,111.076 367.304,114.802 362.154,117.9 										"/>
									</g>
								</g>
							</g>
						</g>
					</g>
				</g>
				<g>
					<g>
						<polygon style="fill:#ABDBFF;" points="197.281,95.792 169.281,59.792 181.281,46.458 						"/>
						<polygon style="fill:#ABDBFF;" points="200.242,93.83 197.365,41.875 213.698,43.542 						"/>
						<polygon style="fill:#ABDBFF;" points="205.436,96.278 223.583,56.577 235.06,64.191 						"/>
					</g>
					<g>
						<g>
							<g>
								<g>
									<path style="fill:#F9C2C2;" d="M100.599,98.791c0,0,2.605,4.86,1.073,13.232c-1.532,8.371,9.76,12.908,12.993,12.632
										c3.234-0.276,2.972-2.479,2.972-2.479s-1.349-6.049-0.581-12.623C117.707,103.994,100.599,98.791,100.599,98.791z"/>
								</g>
								<path style="fill:#EAACAC;" d="M117.05,108.93c0,0-6.262-2.26-9.448-5.347l-4.611-2.315l-0.95,8.252
									C102.041,109.52,111.873,113.267,117.05,108.93z"/>
							</g>
							<g>
								<g>
									<g>
										<path style="fill:#F9C2C2;" d="M124.27,110.256c0,0-9.745-0.203-18.572-7.185c-0.598-0.473-3.483-3.152-4.016-3.765
											c-8.717-10.022-14.129-29.024-8.435-36.6c6.042-8.04,21.964-13.736,31.082-7.25s10.841,9.816,12.352,14.662
											c1.511,4.845-1.259,14.078-1.47,15.593c-0.211,1.515-0.075,3.331-0.525,6.551c-0.237,1.701-3.044,6.142-4.66,10.704
											C128.382,107.611,125.319,110.129,124.27,110.256z"/>
									</g>
									
										<linearGradient id="SVGID_1_" gradientUnits="userSpaceOnUse" x1="124.1878" y1="146.5888" x2="116.2151" y2="144.5947" gradientTransform="matrix(0.9995 0.0301 -0.0301 0.9995 11.9795 -55.1194)">
										<stop  offset="0" style="stop-color:#BA5050"/>
										<stop  offset="0.0792" style="stop-color:#BF5454;stop-opacity:0.8605"/>
										<stop  offset="0.5674" style="stop-color:#D86A6A;stop-opacity:0"/>
									</linearGradient>
									<path style="opacity:0.5;fill:url(#SVGID_1_);" d="M128.495,89.842c0,0,0.122,1.945,1.127,3.059s1.632,1.268,1.514,2.213
										c-0.119,0.944-0.403,1.387-1.414,1.989s-4.264,0.684-4.264,0.684s-2.902-2.57-2.886-3.112
										C122.588,94.134,125.554,88.58,128.495,89.842z"/>
								</g>
								<g>
									<g>
										<g>
											<path style="fill:#004370;" d="M139.853,68.469l-0.078,0.067c-0.154-0.896-0.481-1.783-1.048-2.629
												c-0.576-0.86-3.989-8.637-7.698-10.224c-1.397-0.598-4.433-0.997-5.983-1.203c-0.714-1.201-2.999-2.827-4.052-3.372
												c-4.94-2.559-27.379-1.314-27.64,5.456c-0.219,5.689-8.622,7.161-10.924,15.515c-0.908,3.296,4.559,11.007,4.275,15.831
												c-0.435,3.252-4.32,6.784-4.336,7.887c-0.061,4.167,4.807,12.55,6.711,13.644c0.671,0.386,11.962-1.174,11.962-1.174
												s0.043-0.032,0.104-0.083c0.59,0.299,6.07-4.563,6.456-4.6c0.611-0.059,1.221-4.989,1.583-13.298
												c0.345-7.907-0.19-14.556,4.381-17.056c1.215-0.371,2.627-0.582,4.272-0.581c5.163,0.001,9.182-0.149,11.972-0.304
												c1.979,2.968,6.222,6.902,6.789,6.749c-0.53,3.132-1.281,5.856-1.388,6.619c-0.211,1.515-0.075,3.331-0.525,6.551
												c-0.237,1.701-3.044,6.142-4.659,10.704c-1.645,4.646-4.708,7.164-5.757,7.291c0,0-3.021-0.067-7.22-1.327
												c0.024,0.207,0.032,0.415,0.008,0.623c-0.055,0.469-0.096,0.935-0.131,1.397l7.457,2.528c0,0,3.959-0.108,7.995-7.282
												c0.119-0.211,0.279-0.226,0.464-0.106c1.665,1.088,3.934-0.07,4.529-1.968l1.26-4.021c0,0-3.204-6.721-0.158-11.399
												C142.906,81.894,139.853,68.469,139.853,68.469z"/>
										</g>
									</g>
								</g>
							</g>
							
								<ellipse transform="matrix(0.0301 -0.9995 0.9995 0.0301 31.229 221.6689)" style="fill:#F7BFBF;" cx="129.834" cy="94.743" rx="0.587" ry="0.62"/>
							<g>
								<g>
									<path style="fill:#004370;" d="M123.185,103.927c0,0,0.533,0.762,1.8,0.788c1.267,0.026,1.787-0.258,1.787-0.258
										s-0.932,1.186-2.195,0.972C123.313,105.215,123.185,103.927,123.185,103.927z"/>
									<g>
										<path style="fill:#004370;" d="M119.188,99.704c0,0,2.85,1.311,4.247,0.768c1.398-0.544,2.082-0.803,2.493-0.2
											c0.411,0.603,0.638-0.277,1.022-0.183c1.345,0.326,0.572,1.172,1.415,1.839c0.81,0.641-2.244,0.214-2.657,0.201
											C124.393,102.086,119.268,100.365,119.188,99.704z"/>
										<path style="fill:#004370;" d="M119.391,99.94c0,0-1.082-1.163-0.541-1.148C119.392,98.808,119.391,99.94,119.391,99.94z"
											/>
									</g>
								</g>
								<g>
									<g>
										<path style="fill:#004370;" d="M131.494,82.549c0,0-2.56,5.305-2.58,7.524c-0.022,2.447,2.46,3.659,2.374,5.225
											c-0.086,1.567-2.993,2.332-2.993,2.332s1.434-0.822,2.035-1.255c1.291-0.93,0.639-1.719-0.255-2.762
											c-0.676-0.789-2.185-2.142-1.633-4.254C128.995,87.248,131.494,82.549,131.494,82.549z"/>
										<path style="fill:#004370;" d="M130.216,93.235c0,0-0.75-0.651-1.475-0.664c-0.724-0.013-0.796,0.1-0.796,0.1
											s2.011,0.447,2.258,0.986S130.216,93.235,130.216,93.235z"/>
									</g>
									<path style="fill:#004370;" d="M127.235,96.464c0,0-0.172-1.136-1.506-0.652C125.729,95.812,126.766,95.872,127.235,96.464
										z"/>
								</g>
								<g>
									<g>
										<g>
											<g>
												<path style="fill:#EAACAC;" d="M134.846,90.603c-1.509,0.317-2.701,1.505-2.858,3.049
													c-0.123,1.206,0.049,2.008,0.963,2.737c0.969-1.915,1.621-3.307,1.735-4.129
													C134.77,91.664,134.815,91.122,134.846,90.603z"/>
											</g>
										</g>
									</g>
									<g>
										<path style="fill:#004370;" d="M130.662,84.34c0,0,4.573-0.956,4.974-1.338c0.402-0.382,0.41-1.652,0.41-1.652
											s-4.414,0.631-4.67,1.316C131.034,83.584,130.662,84.34,130.662,84.34z"/>
										<g>
											<path style="fill:#FFFFFF;" d="M129.623,87.393c0,0,1.401-1.312,1.988-1.295c0.586,0.018-0.171,2.681-0.171,2.681
												l-0.387,0.076c0,0-0.629-0.221-0.861-0.332C129.631,88.256,129.534,87.368,129.623,87.393z"/>
											<path style="fill:#004370;" d="M133.977,89.345c0.402-0.341,0.642-1.07,0.607-1.802c-0.054-1.125-0.483-1.755-1.555-2.04
												c-0.541-0.144-1.861,0.733-2.09,1.947c-0.113,0.6-0.074,1.061,0.113,1.407l1.256,0.364L133.977,89.345z"/>
											<path style="fill:#004370;" d="M137.376,85.223l-0.909,0.086c-0.805,0.101-1.11,0.093-2.126,0.097
												c-4.236,0.018-4.783,2.033-4.783,2.033c1.658-1.411,3.761-1.3,5.876-1.259L137.376,85.223z"/>
											<path style="fill:#8E2052;" d="M129.948,88.482c0,0,1.591,0.711,2.936,0.864c1.345,0.153,2.132-0.3,2.132-0.3
												s-1.269,0.291-2.6-0.006S129.948,88.482,129.948,88.482z"/>
											
												<ellipse transform="matrix(0.0301 -0.9995 0.9995 0.0301 41.501 219.4918)" style="fill:#FFFFFF;" cx="133.848" cy="88.362" rx="0.85" ry="0.771"/>
										</g>
									</g>
								</g>
								<g>
									
										<ellipse transform="matrix(0.1013 -0.9949 0.9949 0.1013 12.3117 199.6647)" style="fill:#EAACAC;" cx="116.669" cy="93.018" rx="3.52" ry="3.709"/>
									<g>
										<path style="fill:#004370;" d="M125.244,81.818c0,0-4.053-1.755-7.305-2.435c-2.915-0.609-6.812,2.453-7.066,2.758
											c-0.253,0.306,3.325-1.53,5.612-1.15c3.333,0.553,3.537,0.147,8.704,2.923C126.006,84.353,125.244,81.818,125.244,81.818z
											"/>
										<g>
											<path style="fill:#FFFFFF;" d="M119.733,83.995c0,0-3.589,0.253-4.62-0.5s-1.031-0.753-1.031-0.753
												s0.725,2.911,1.809,3.907c1.084,0.996,2.836,1.771,3.199,1.721c0.363-0.049,1.247-0.444,1.16-0.537
												C120.162,87.74,119.733,83.995,119.733,83.995z"/>
											<path style="fill:#004370;" d="M124.496,86.237c0,0-0.386-2.196-4.609-2.617c-4.222-0.421-6.788-1.419-6.788-1.419
												s-0.415,0.686,2.551,1.645C118.616,84.806,122.187,83.754,124.496,86.237z"/>
											<path style="fill:#004370;" d="M113.833,82.772c0,0,0.991,4.018,3.724,5.374c1.325,0.658,6.265-0.254,6.265-0.254
												s-4.567,0.349-5.593,0.074c-2.628-0.705-3.809-4.981-3.809-4.981L113.833,82.772z"/>
											<path style="fill:#004370;" d="M123.133,87.908c0.207-0.376,0.333-0.806,0.329-1.269
												c-0.012-1.419-1.308-2.762-2.698-2.753c-1.39,0.009-2.348,1.366-2.336,2.785c0.006,0.68,0.131,1.102,0.557,1.559
												C119.727,88.18,121.903,88.085,123.133,87.908z"/>
											
												<ellipse transform="matrix(0.0301 -0.9995 0.9995 0.0301 32.003 206.8401)" style="fill:#FFFFFF;" cx="122.58" cy="86.93" rx="0.97" ry="0.88"/>
										</g>
									</g>
								</g>
							</g>
						</g>
						<g>
							<g>
								<g>
									<g>
										<path style="fill:#0E5F8C;" d="M167.311,177.348c-1.129-4.15-17.244-26.905-20.404-31.341
											c-4.803-7.003-9.21-13.341-10.989-15.651c-4.72-6.13-8.827-9.815-17.612-9.164c-7.503,0.556-9.338-1.617-9.338-1.617
											c8.851,11.693,16.14,44.25,16.14,44.25l16.328,3.018c0.196,0.285,0.316,0.449,0.316,0.449s12.058,19.789,13.424,19.999
											C156.541,187.502,168.563,181.95,167.311,177.348z"/>
										<g>
											<g>
												<path style="fill:#F9C2C2;" d="M153.434,180.848c0,0,5.445-13.161,15.163-20.16s24.965-26.892,24.965-26.892
													s4.854-0.927,6.384,2.563s-26.935,51.899-35.885,53.59C155.112,191.639,152.855,185.584,153.434,180.848z"/>
											</g>
											<g>
												<g>
													<path style="fill:#F9C2C2;" d="M200.077,115.805c0,0,4.292-8.591,5.072-9.9s0.234-3.655-1.743-2.458
														c-1.977,1.198-7.165,11.906-8.062,14.761c-0.897,2.855-1.325,5.991-2.394,5.373c-1.069-0.619-1.245-4.107-2.332-5.3
														c-1.087-1.193-4.071-2.581-5.008-2.132s0.733,2.405,1.902,4.692c1.168,2.287,2.114,6.101,2.094,8.253
														c-0.02,2.152,1.83,9.357,3.648,10.207c1.817,0.85,7.568,0.206,9.062-2.571s5.828-8.76,5.597-10.5
														c-0.231-1.739-0.273-4.623-0.845-5.357C206.494,120.139,200.077,115.805,200.077,115.805z"/>
													<path style="fill:#EAACAC;" d="M197.44,132.152c0,0,2.058-1.722,2.394-2.264s-1.011,0.38-2.108-0.233
														c-1.097-0.612-1.679-2.617-2.936-3.048c0,0,1.527,2.335,1.603,3.532C196.469,131.337,196.252,132.891,197.44,132.152z"
														/>
												</g>
												<g>
													<path style="fill:#EAACAC;" d="M197.007,123.855c0.169-0.615-0.33-3.832-0.104-4.536
														c0.227-0.704,2.584-3.812,3.061-4.114c0.477-0.302,1.257-0.293,1.257-0.293l-0.45,2.711
														c0.964-0.578,1.888-1.063,2.08-1.12c0,0,0.432,0.534,0.819,0.577c0.388,0.042,1.517,2.495,1.517,2.495l-0.286,0.865
														l2.165,0.433c0,0,0.246,1.042-0.629,1.882c-0.19,0.183-0.334,0.394-0.454,0.615c0.133,0.251,0.03,0.92-0.018,1.476
														c-0.119,1.4-1.233,1.281-1.233,1.281l0,0c-0.673,0.388-1.999,0.505-2.246,0.025c-0.197-0.075-0.527,0.138-1.113,0.385
														c-1.106,0.467-1.614-0.781-1.931-1.026c-0.517-0.399-0.891,0.006-1.231,0.072c-0.162,0.031-0.646-0.127-0.646-0.127
														C196.963,125.283,196.901,124.241,197.007,123.855z"/>
													<path style="fill:#F9C2C2;" d="M202.845,116.701c-0.167-2.131-1.403-1.864-2.171-1.686
														c-0.768,0.179-3.371,3.908-3.434,4.385c-0.062,0.477,0.097,3.65-0.163,4.521c-0.26,0.87,1.006,2.521,2.179,0.91
														c0.684-0.939,0.45-3.4,0.563-3.891C200.002,120.143,202.889,117.263,202.845,116.701z"/>
													<path style="fill:#F9C2C2;" d="M204.982,119.855c0,0-2.057,2.098-2.119,2.576c-0.062,0.477,0.057,3.226-1.087,3.781
														c-1.143,0.555-1.977-0.292-2.015-0.457c-0.038-0.165,0.425-3.049,0.242-3.932c-0.183-0.883,2.21-3.927,3.108-4.541
														S206.065,117.549,204.982,119.855z"/>
													<path style="fill:#F9C2C2;" d="M202.954,126.328c0.459,0.173,2.026-0.515,2.109-1.402
														c0.083-0.887,0.282-1.772,0.539-2.034c0.257-0.262,1.152-0.644,1.406-1.166s-0.098-1.915-0.514-2.209
														c-0.415-0.294-1.389,0.048-1.422,0.128c-0.033,0.08-1.824,2.407-1.862,2.632
														C203.047,123.224,202.146,126.023,202.954,126.328z"/>
												</g>
											</g>
										</g>
									</g>
									<g>
										<path style="fill:#0E5F8C;" d="M95.451,174.884c0,0,0.49-50.188-3.087-52.303s-18.958,0.792-17.533,18.365
											c1.351,16.667,0.554,17.969,2.454,32.217c1.728,12.962,0.568,21.157,4.987,23.272
											C86.69,198.549,95.748,200.412,95.451,174.884z"/>
										<g>
											<g>
												<path style="fill:#F9C2C2;" d="M85.836,182.444c-1.84,0.108-3.562,0.935-4.93,2.17
													c-3.077,2.776-9.801,9.497-12.69,17.521c-3.808,10.577-17.823,29.472-17.823,29.472s0.417,4.619,3.961,5.099
													c3.545,0.48,39.882-37.704,39.097-46.218C92.862,184.102,89.313,182.24,85.836,182.444z"/>
											</g>
											<g>
												<path style="fill:#E09999;" d="M44.516,239.329c0,0-0.488-0.851-2.083-0.52s-2.92,1.022-4.515,1.503
													c-1.595,0.481-4.274,0.57-4.274,0.57s6.714-6.348,8.926-6.181C44.781,234.867,46.118,238.404,44.516,239.329z"/>
												<path style="fill:#EAACAC;" d="M32.701,236.846c0,0-5.468,3.01-6.8,3.078s-1.039,1.625,0.721,2.167
													s6.985-0.294,10.791-2.614c3.806-2.32,6.845-1.812,6.845-1.812S42.345,233.498,32.701,236.846z"/>
												<path style="fill:#F9C2C2;" d="M57.091,234.029c0,0-2.62,5.386-5.992,7.311c-3.372,1.925-4.342,2.248-6.216,3.624
													s-3.545,3.136-3.794,3.971c-0.249,0.835-2.709,0.45-2.415-1.604c0.294-2.054,2.755-3.701,4.268-4.806
													c1.513-1.105,1.581-2.708,1.581-3.611C44.524,238.012,57.064,225.888,57.091,234.029z"/>
												<path style="fill:#F9C2C2;" d="M44.524,238.915c0,0-2-2.694-5.372-1.447c-2.681,0.992-6.005,2.3-6.999,3.157
													c-0.994,0.857-5.261,4.535-7.202,3.902c-1.941-0.633-0.872-1.565-0.112-1.919c0.76-0.353,6.646-4.894,7.32-5.583
													c0.673-0.689,5.505-3.351,6.438-4.464s5.945-2.18,10.249-3.412c4.304-1.232,6.841-1.899,7.739-0.256
													C57.484,230.538,51.874,240.717,44.524,238.915z"/>
											</g>
										</g>
									</g>
								</g>
								<g>
									<g>
										<g>
											<g>
												<g>
													<path style="fill:#0E5F8C;" d="M89.05,144.95c0,0,10.941,29.458,15.15,37.453s-7.047,35.17-7.047,36.433
														s39.424,12.399,40.687,11.557c1.262-0.842,10.659-6.138,10.449-11.399c-0.21-5.26-5.794-21.652-7.267-28.806
														c-1.473-7.154,1.298-16.696,2.104-22.304c2.313-16.095-5.991-29.194-8.551-33.034
														C134.094,134.129,94.801,132.045,89.05,144.95z"/>
												</g>
												<g>
													<path style="fill:#0E5F8C;" d="M100.2,112.725c0,0-5.549,4.326-12.072,8.114c-6.523,3.787-5.812,3.701-7.916,4.753
														c-2.104,1.052,6.312,17.464,10.731,21.672c4.419,4.208,31.562-2.946,31.562-2.946l12.069-9.468l-16.278-18.517
														C118.297,116.334,114.087,121.563,100.2,112.725z"/>
												</g>
											</g>
										</g>
									</g>
									<g>
										<path style="fill:#0A597C;" d="M130.241,132.238c0,0,0.277,2.691,2.533,7.678c2.256,4.987,7.916,7.837,10.409,14.605
											c2.493,6.768-0.237,14.486-0.237,14.486s0.712-11.28-1.069-15.317C140.096,149.652,127.866,142.805,130.241,132.238z"/>
										<path style="fill:#0A597C;" d="M115.042,170.867c0,0-14.388-0.655-18.156-16.463l-4.404-5.543l2.553,12.012l6.352,15.733
											l1.722,3.562c0,0,2.098,3.226,1.88,7.876c0,0-0.871,6.095-1.821,10.449c-0.95,4.354-3.325,12.19-3.325,12.19l9.816,4.037
											c0,0,3.918-10.568,4.749-18.523C115.24,188.242,115.042,170.867,115.042,170.867z"/>
										<path style="fill:#0A597C;" d="M122.325,173.083c0,0,3.008-2.85,6.808-3.166c3.8-0.317,9.816,0.792,9.816,0.792
											s-5.224,6.016-7.282,8.074C129.607,180.84,121.85,174.191,122.325,173.083z"/>
										<path style="fill:#0A597C;" d="M109.539,125.598c0,0,5.433,6.113,6.452,4.528c1.019-1.585,1.811-5.773,1.811-5.773
											S108.18,123.447,109.539,125.598z"/>
									</g>
								</g>
							</g>
							<g>
								<g>
									<g>
										<path style="fill:#F9C2C2;" d="M136.516,431.566l0.234-8.464l11.214-0.549l2.342,10.919
											C150.306,433.471,137.987,437.483,136.516,431.566"/>
										<g>
											<path style="fill:#004370;" d="M133.01,443.065c0,0,0.536,7.371,1.206,7.907c0.67,0.536,8.845,2.546,11.659,4.02
												c2.814,1.474,6.969,3.216,11.257,3.216c4.289,0,12.732-1.206,13.134-2.144c0.402-0.938,0.089-5.003,0.089-5.003
												s-11.213,0.983-15.635-0.491C150.298,449.095,133.01,443.065,133.01,443.065z"/>
											<path style="fill:#00293F;" d="M135.757,429.553c0,0-0.682,1.939-1.496,4.175c-0.903,2.479-2.323,8.398-0.357,11.615
												c1.966,3.216,8.934,3.931,14.116,6.969c5.182,3.038,22.661,1.287,22.336-1.251c-0.447-3.484-6.075-5.718-8.934-8.398
												c-2.859-2.68-8.169-7.452-9.985-12.598C150.925,428.616,141.658,433.409,135.757,429.553z"/>
										</g>
									</g>
									<g>
										<path style="fill:#F9C2C2;" d="M79.896,419.065l3.206-7.837l10.686,3.443l-1.662,11.042
											C92.126,425.714,79.184,425.121,79.896,419.065"/>
										<g>
											<path style="fill:#004370;" d="M74.065,443.377c0,0,0.249,7.441,0.373,9.059c0.124,1.618,3.984,3.735,8.839,4.357
												c4.855,0.622,9.337,0.498,10.706,0.125c1.369-0.373,1.867-5.328,1.867-5.328L74.065,443.377z"/>
											<path style="fill:#00293F;" d="M80.253,417.284c0,0-1.639,2.248-2.137,5.462c-0.498,3.213-0.191,5.992-1.312,9.444
												c-1.12,3.452-2.614,7.022-2.739,11.188c-0.124,4.166,1.369,6.665,5.477,8.212c4.108,1.547,15.312,2.023,16.308,0
												c0.996-2.023-0.249-9.164-1.618-14.758c-1.369-5.594-0.206-15.273-0.206-15.273S85.304,424.504,80.253,417.284z"/>
										</g>
									</g>
								</g>
								<g>
									<g>
										<path style="fill:#004370;" d="M96.224,220.144l3.237-9.959c0,0,23.902,9.461,32.616,9.461s16.93-2.988,16.93-2.988
											l0.664,9.461l1.079,33.114l-31.869,2.988L96.224,220.144"/>
										<path style="fill:#004370;" d="M149.67,226.119c0,0,5.311,27.553,5.643,49.463c0.332,21.91-5.311,55.438-4.979,61.746
											c0.332,6.307,0,39.836,0,52.451c0,12.615,1.992,34.856,0.332,36.184s-16.266,0.664-16.266,0.664
											s-7.967-43.487-8.631-52.119s1.328-32.533,1.328-38.176s-4.482-38.108-4.482-49.463c0-12.2,1.245-29.379,1.245-29.379
											S149.67,235.746,149.67,226.119z"/>
										<path style="fill:#004370;" d="M124.607,243.049c0,0,1.494,34.607,0.996,57.762c-0.336,15.613-0.913,28.466-1.245,33.114
											c-0.332,4.648-27.138,81.083-27.802,84.734c-0.664,3.652-18.258-1.328-17.262-5.643s5.311-48.135,7.967-56.102
											s10.955-25.893,10.623-27.553c-0.332-1.66-8.797-65.231-8.133-80.17c0.664-14.938,6.473-29.047,6.473-29.047
											S120.623,234.418,124.607,243.049z"/>
									</g>
									<g>
										<polygon style="fill:#013E60;" points="125.769,253.506 132.076,243.713 127.096,336.331 124.482,309.899 										"/>
										<path style="fill:#013E60;" d="M97.311,246.858c-0.317-10.765,9.816-33.721,9.816-33.721l-7.579-3.107
											c0,0-7.777,14.901-9.44,29.15s0.396,35.858,1.821,46.94c1.425,11.082,5.699,41.479,5.699,43.853
											s-10.132,20.106-11.874,31.505c-1.742,11.399-5.541,48.603-5.541,48.603s4.433-35.779,8.549-46.228
											c4.116-10.449,10.845-23.51,13.694-31.109c2.85-7.599-0.396-25.568-1.662-36.333
											C99.527,285.645,97.628,257.623,97.311,246.858z"/>
										<path style="fill:#013E60;" d="M106.757,226.439c0,0,13.971,3.693,23.143,3.673c9.172-0.021,18.571-3.204,18.571-3.204
											s-10.828,2.529-17.3,2.432C124.698,229.242,106.757,226.439,106.757,226.439z"/>
									</g>
								</g>
							</g>
						</g>
					</g>
				</g>
			</g>
		</g>
	</g>
</g>
</svg>
